<svg width="40" height="41" viewBox="0 0 40 41" fill="none" xmlns="http://www.w3.org/2000/svg">
<rect x="0.5" y="1.16675" width="39" height="39" rx="19.5" fill="#F0F3F7"/>
<rect x="0.5" y="1.16675" width="39" height="39" rx="19.5" stroke="#DFECF7"/>
<path d="M27.3438 14.4168V18.1668C27.3438 18.2911 27.2944 18.4104 27.2065 18.4983C27.1185 18.5862 26.9993 18.6356 26.875 18.6356H23.125C23.0007 18.6356 22.8815 18.5862 22.7935 18.4983C22.7056 18.4104 22.6562 18.2911 22.6562 18.1668C22.6562 18.0425 22.7056 17.9233 22.7935 17.8354C22.8815 17.7475 23.0007 17.6981 23.125 17.6981H25.7438L24.3336 16.2918C23.143 15.096 21.5265 14.4216 19.8391 14.4168H19.8031C18.1302 14.4115 16.5224 15.0649 15.3273 16.2356C15.2839 16.281 15.2317 16.3172 15.1739 16.342C15.1161 16.3668 15.054 16.3797 14.9911 16.38C14.9282 16.3804 14.866 16.368 14.808 16.3437C14.75 16.3195 14.6974 16.2838 14.6535 16.2388C14.6096 16.1939 14.5751 16.1405 14.5523 16.0819C14.5294 16.0234 14.5185 15.9608 14.5203 15.898C14.5221 15.8351 14.5365 15.7733 14.5627 15.7161C14.5888 15.659 14.6262 15.6077 14.6727 15.5653C16.0414 14.2209 17.8846 13.4698 19.8031 13.4746H19.8438C21.7797 13.4796 23.6344 14.2532 25 15.6254L26.4062 17.0317V14.4168C26.4062 14.2925 26.4556 14.1733 26.5435 14.0854C26.6315 13.9975 26.7507 13.9481 26.875 13.9481C26.9993 13.9481 27.1185 13.9975 27.2065 14.0854C27.2944 14.1733 27.3438 14.2925 27.3438 14.4168ZM24.6727 25.0981C23.4784 26.2705 21.8705 26.9255 20.1969 26.9215H20.1609C18.4735 26.9167 16.857 26.2423 15.6664 25.0465L14.2562 23.6356H16.875C16.9993 23.6356 17.1185 23.5862 17.2065 23.4983C17.2944 23.4104 17.3438 23.2911 17.3438 23.1668C17.3438 23.0425 17.2944 22.9233 17.2065 22.8354C17.1185 22.7475 16.9993 22.6981 16.875 22.6981H13.125C13.0007 22.6981 12.8815 22.7475 12.7935 22.8354C12.7056 22.9233 12.6562 23.0425 12.6562 23.1668V26.9168C12.6562 27.0411 12.7056 27.1604 12.7935 27.2483C12.8815 27.3362 13.0007 27.3856 13.125 27.3856C13.2493 27.3856 13.3685 27.3362 13.4565 27.2483C13.5444 27.1604 13.5938 27.0411 13.5938 26.9168V24.2981L15 25.7082C16.3656 27.0804 18.2203 27.8541 20.1562 27.859H20.1969C22.1154 27.8639 23.9586 27.1128 25.3273 25.7684C25.3738 25.726 25.4112 25.6747 25.4373 25.6175C25.4635 25.5603 25.4779 25.4985 25.4797 25.4357C25.4815 25.3728 25.4706 25.3103 25.4477 25.2517C25.4249 25.1931 25.3904 25.1398 25.3465 25.0948C25.3026 25.0498 25.25 25.0142 25.192 24.9899C25.134 24.9656 25.0718 24.9533 25.0089 24.9536C24.946 24.9539 24.8839 24.9668 24.8261 24.9917C24.7683 25.0165 24.7161 25.0527 24.6727 25.0981Z" fill="#194B6C"/>
</svg>
