<svg width="32" height="33" viewBox="0 0 32 33" fill="none" xmlns="http://www.w3.org/2000/svg">
<path fill-rule="evenodd" clip-rule="evenodd" d="M27.7675 9.91286L16.047 2.92859L4.23242 9.91167V23.3299L16 30.2585L27.7675 23.3299V9.91286ZM5.23242 11.0204V22.4803L10.1277 13.7532L5.23242 11.0204ZM10.6169 12.881L15.3005 4.53139L5.76067 10.17L10.6169 12.881ZM6.34325 22.544L10.7385 14.7083L15.2694 22.544H6.34325ZM15.5127 23.544V28.8111L6.56704 23.544H15.5127ZM16.5127 23.544V28.7961L25.4329 23.544H16.5127ZM21.3219 14.6951L16.7344 22.544H25.6952L21.3219 14.6951ZM11.6956 13.0021H20.3785L16.0516 5.23647L11.6956 13.0021ZM26.7675 22.4141L21.9163 13.7075L26.7675 11.07V22.4141ZM16.8136 4.54951L26.2856 10.1938L21.4296 12.8339L16.8136 4.54951ZM16.0026 21.8143L11.4853 14.0021H20.5686L16.0026 21.8143Z" fill="#194B6C"/>
</svg>
