<svg width="32" height="32" viewBox="0 0 32 32" fill="none" xmlns="http://www.w3.org/2000/svg">
<path d="M28.6508 20.625C28.7503 20.7977 28.777 21.0029 28.7252 21.1953C28.6734 21.3878 28.5473 21.5518 28.3745 21.6512C28.2018 21.7507 27.9967 21.7775 27.8042 21.7257C27.6118 21.6739 27.4478 21.5477 27.3483 21.375L24.8483 16.99C23.37 18.0264 21.7193 18.792 19.9733 19.2512L20.7445 23.8762C20.7608 23.9734 20.7578 24.0729 20.7357 24.1689C20.7135 24.2649 20.6726 24.3556 20.6154 24.4358C20.5582 24.516 20.4857 24.5842 20.4021 24.6364C20.3185 24.6886 20.2255 24.7238 20.1283 24.74C20.0869 24.7464 20.0452 24.7497 20.0033 24.75C19.8262 24.7498 19.6549 24.687 19.5196 24.5726C19.3844 24.4582 19.2941 24.2996 19.2645 24.125L18.4995 19.555C16.843 19.8153 15.1561 19.8153 13.4995 19.555L12.7395 24.125C12.71 24.2998 12.6194 24.4586 12.484 24.573C12.3485 24.6874 12.1769 24.7501 11.9995 24.75C11.9577 24.7497 11.9159 24.7464 11.8745 24.74C11.7773 24.7236 11.6843 24.6883 11.6008 24.6359C11.5173 24.5836 11.4449 24.5153 11.3877 24.435C11.3306 24.3546 11.2899 24.2638 11.2679 24.1678C11.2459 24.0717 11.2431 23.9722 11.2595 23.875L12.0308 19.25C10.2848 18.7908 8.63413 18.0251 7.1558 16.9887L4.6508 21.375C4.55134 21.5477 4.38735 21.6739 4.19489 21.7257C4.00243 21.7775 3.79727 21.7507 3.62455 21.6512C3.45183 21.5518 3.32569 21.3878 3.27388 21.1953C3.22207 21.0029 3.24884 20.7977 3.3483 20.625L5.95455 16.065C5.02735 15.2826 4.17722 14.4132 3.4158 13.4687C3.29082 13.3139 3.23245 13.1158 3.25355 12.9179C3.27465 12.7201 3.37348 12.5387 3.5283 12.4137C3.68312 12.2888 3.88125 12.2304 4.0791 12.2515C4.27695 12.2726 4.45831 12.3714 4.5833 12.5262C6.69205 15.1387 10.3833 18.25 15.9995 18.25C21.6158 18.25 25.307 15.1387 27.4158 12.5287C27.5408 12.3739 27.7221 12.2751 27.92 12.254C28.1178 12.2329 28.316 12.2913 28.4708 12.4162C28.6256 12.5412 28.7244 12.7226 28.7455 12.9204C28.7666 13.1183 28.7083 13.3164 28.5833 13.4712C27.8219 14.4157 26.9717 15.2851 26.0445 16.0675L28.6508 20.625Z" fill="#194B6C"/>
</svg>
