<svg width="64" height="210" viewBox="0 0 64 210" fill="none" xmlns="http://www.w3.org/2000/svg">
<g clip-path="url(#clip0_477_9952)">
<path d="M32.5762 2.23999C35.3884 2.37271 37.1434 3.48349 38.0752 5.04663C38.8448 6.33769 38.9658 7.7978 38.8301 8.94409C41.7683 10.8609 43.0042 13.7911 43.4512 16.6062C43.8649 19.2118 43.6191 21.8083 43.4004 23.5837L43.3105 24.2917L43.2598 24.6843C42.9305 27.2963 41.3223 29.8168 40.1064 31.5681L39.6143 32.2703C39.4767 32.4654 39.3501 32.6449 39.2354 32.8103L38.9277 33.2654C38.5573 33.8339 38.3956 34.7124 38.4502 35.8982C38.5039 37.0626 38.7568 38.375 39.0635 39.698L39.0967 39.8035C39.1961 40.0529 39.4717 40.3282 40.2607 40.6052C41.1604 40.9211 42.4093 41.1274 44.0195 41.3884L45.748 41.6765C47.5617 41.9945 49.6117 42.4244 51.7266 43.1609L52.0664 43.2859C55.5134 44.6195 56.9126 47.2715 57.3721 49.7751C57.7774 51.984 57.465 54.1142 57.2666 55.2029L57.1904 55.6023L57.1758 55.6785C57.1756 55.6797 57.1743 55.6887 57.1719 55.7078C57.1692 55.728 57.1664 55.7552 57.1631 55.7898C57.1565 55.8594 57.1498 55.9501 57.1436 56.0623C57.1311 56.2866 57.1216 56.5793 57.1143 56.9343C57.0996 57.6438 57.0955 58.5789 57.1035 59.6658C57.1196 61.8383 57.1814 64.5991 57.2842 67.3416C57.3871 70.0863 57.5312 72.8005 57.7129 74.8845C57.804 75.9292 57.9024 76.797 58.0068 77.4246C58.0594 77.7405 58.1099 77.9721 58.1543 78.1257C58.1634 78.1573 58.1732 78.1818 58.1797 78.2009C58.8012 78.8555 59.4708 79.9878 60.0273 81.1472C60.6276 82.398 61.1698 83.8349 61.4238 85.0476L61.4707 85.3171C61.5735 86.026 61.6375 87.2815 61.6885 88.7595C61.7484 90.496 61.7922 92.6658 61.8379 94.9177L61.9209 98.7927C62.012 102.61 62.1357 106.073 62.3721 107.574L62.4219 107.929C62.8111 111.113 61.6696 114.027 60.459 116.673L59.9209 117.831L59.3232 119.125C58.652 120.605 57.9812 121.597 57.377 122.238C57.0748 122.559 56.7779 122.802 56.4941 122.974C56.2281 123.136 55.9054 123.274 55.5625 123.288L54.3555 123.335L54.5352 122.14L54.5898 121.768C54.5196 121.761 54.4491 121.753 54.3789 121.739C53.7001 121.602 53.2158 121.159 52.9639 120.817L52.5586 120.267L52.9238 119.689L53.8896 118.157C53.5209 118.157 53.195 118.058 52.9697 117.948L52.3975 117.669L52.4092 117.031L52.4385 116.093C52.4851 114.969 52.5886 113.397 52.7861 112.333L52.8252 112.14C53.0397 111.199 53.4757 110.625 53.8936 110.062L54.2393 109.587C54.599 109.073 54.9989 108.414 55.4199 107.359L55.5029 107.131C55.8839 105.961 55.7971 104.36 55.3047 102.27C54.9154 100.618 54.3005 98.7704 53.5801 96.7449L52.8291 94.6599C51.807 91.8465 51.3648 88.9594 51.041 86.449L50.9082 85.3972C50.631 83.1811 50.4059 81.4586 49.9482 80.2908L49.8535 80.0652C49.2896 78.8063 48.5352 76.2506 47.835 73.6531C47.2712 71.5616 46.7271 69.381 46.3223 67.696C45.6874 68.1756 45.0167 69.028 44.4766 70.281C43.6969 72.0896 43.2975 74.5139 43.6855 77.1267L43.7881 77.7458C44.3414 80.7689 45.4999 82.7253 46.915 85.1023L47.8145 86.6316C48.7335 88.2336 49.6987 90.0883 50.5801 92.5105L50.6855 92.8201C51.1997 94.4326 51.5383 97.0328 51.7529 100.01C51.9848 103.226 52.0783 107.003 52.0537 110.719C52.0291 114.436 51.8868 118.107 51.6426 121.11C51.5206 122.611 51.3717 123.956 51.1982 125.061C51.0497 126.008 50.8747 126.839 50.6582 127.449L50.5625 127.696C49.7787 129.567 49.1336 132.789 48.8789 136.407C48.6252 140.011 48.7672 143.893 49.4893 147.066C50.2722 150.507 50.3116 155.621 50.1475 160.018C50.0234 163.341 49.7799 166.324 49.626 167.999L49.5088 169.201C49.4887 169.397 49.4357 169.684 49.3613 170.036L49.0879 171.259C48.5639 173.565 47.6798 177.461 47.2314 181.849C46.7819 186.25 46.7803 191.063 47.9736 195.216L48.499 197.074C48.9847 198.835 49.3498 200.308 49.5664 201.533C49.8497 203.135 49.9133 204.483 49.5234 205.55C49.0925 206.728 48.1841 207.383 47.0127 207.738C46.042 208.032 44.8094 208.147 43.3584 208.202L42.7227 208.222C40.9159 208.27 39.5085 207.92 38.5225 207.12C37.5132 206.301 37.1171 205.152 37.04 203.989C36.9642 202.844 37.1882 201.6 37.501 200.424C37.816 199.239 38.2432 198.046 38.6162 197.003L38.752 196.623L38.8721 196.26C39.4395 194.398 39.5193 191.9 39.2148 188.714C38.9323 185.757 38.3296 182.3 37.5547 178.35L37.2119 176.628C35.3343 167.275 34.0029 157.66 34.0029 153.337C34.0029 151.927 34.0846 150.325 34.166 148.727L34.2822 146.262C34.314 145.454 34.3352 144.665 34.3359 143.915C34.3373 142.59 34.2732 141.443 34.1074 140.555L34.0303 140.191C33.8629 139.496 33.6408 137.859 33.3926 135.749C33.1406 133.607 32.8536 130.9 32.5625 128.01C32.3737 126.136 32.1844 124.183 32 122.255C31.8156 124.183 31.6263 126.136 31.4375 128.01C31.1464 130.9 30.8594 133.607 30.6074 135.749C30.3902 137.596 30.1932 139.08 30.0352 139.887L29.9697 140.191C29.7462 141.119 29.6625 142.401 29.6641 143.915C29.6656 145.416 29.7495 147.071 29.834 148.727L29.9463 151.102C29.977 151.879 29.9971 152.632 29.9971 153.337C29.9971 157.389 28.8263 166.093 27.1328 174.872L26.7881 176.628C25.8496 181.302 25.1081 185.334 24.7852 188.714C24.4604 192.112 24.5732 194.728 25.248 196.623L25.3838 197.003L25.6709 197.811C25.9632 198.642 26.2628 199.535 26.499 200.424C26.8118 201.6 27.0358 202.844 26.96 203.989C26.8829 205.152 26.4868 206.301 25.4775 207.12C24.5531 207.87 23.2583 208.224 21.6113 208.226L21.2773 208.222C19.5486 208.177 18.0967 208.074 16.9873 207.738C15.8159 207.383 14.9075 206.728 14.4766 205.55C14.0867 204.483 14.1503 203.135 14.4336 201.533C14.7224 199.9 15.2764 197.825 16.0264 195.216L16.1348 194.825C17.2194 190.763 17.2041 186.112 16.7686 181.849C16.4323 178.558 15.8513 175.544 15.3604 173.269L14.9121 171.259C14.7574 170.578 14.6206 169.981 14.5449 169.56L14.4912 169.201C14.3964 168.275 14.0179 164.448 13.8525 160.018C13.6884 155.621 13.7278 150.507 14.5107 147.066C15.2328 143.893 15.3748 140.011 15.1211 136.407C14.8823 133.015 14.3006 129.972 13.583 128.063L13.4375 127.696C13.1764 127.073 12.9714 126.143 12.8018 125.061C12.6283 123.956 12.4794 122.611 12.3574 121.11C12.1132 118.107 11.9709 114.436 11.9463 110.719C11.9217 107.003 12.0152 103.226 12.2471 100.01C12.476 96.8341 12.8462 94.0871 13.4199 92.5105L13.6416 91.9167C14.7597 89.0043 15.9922 86.9379 17.085 85.1023L17.6357 84.1707C18.887 82.032 19.8748 80.0873 20.3145 77.1267L20.3779 76.6394C20.651 74.2135 20.2544 71.9767 19.5234 70.281C18.9831 69.0276 18.3118 68.1755 17.6768 67.696C17.272 69.381 16.7288 71.5617 16.165 73.6531C15.5523 75.9261 14.898 78.1669 14.3662 79.5349L14.1465 80.0652C13.7546 80.9402 13.5232 82.1724 13.3076 83.7312L13.0918 85.3972C12.771 87.9618 12.3898 91.033 11.3809 94.0564L11.1709 94.6599C10.1332 97.516 9.21443 100.068 8.69531 102.27C8.17 104.499 8.10673 106.173 8.58008 107.359L8.78809 107.855C9.27039 108.94 9.72021 109.542 10.1064 110.062L10.4404 110.521C10.7686 110.996 11.0666 111.54 11.2139 112.333L11.3057 112.903C11.5007 114.311 11.5757 116.192 11.5908 117.031L11.6025 117.669L11.0303 117.948C10.8048 118.058 10.4785 118.158 10.1094 118.158L11.0762 119.689L11.4414 120.267L11.0361 120.817C10.7842 121.159 10.2999 121.602 9.62109 121.739C9.55059 121.753 9.47973 121.761 9.40918 121.768L9.46484 122.14L9.64453 123.335L8.4375 123.288C8.09461 123.274 7.77194 123.136 7.50586 122.974C7.22213 122.802 6.92518 122.559 6.62305 122.238C6.09428 121.677 5.51496 120.847 4.92871 119.657L4.67676 119.125L4.0791 117.831C2.65796 114.789 1.02974 111.371 1.62793 107.574L1.68457 107.159C1.95718 104.888 2.06383 99.7597 2.16211 94.9177L2.23145 91.6453C2.25565 90.6044 2.28156 89.6277 2.31152 88.7595C2.36981 87.0705 2.44543 85.6719 2.57617 85.0476L2.68457 84.5837C2.96675 83.4791 3.44731 82.2418 3.97266 81.1472C4.52887 79.9883 5.19811 78.8566 5.81934 78.2019C5.82593 78.1826 5.83639 78.1579 5.8457 78.1257C5.89015 77.9721 5.94057 77.7405 5.99316 77.4246C6.09764 76.797 6.19604 75.9292 6.28711 74.8845C6.46878 72.8005 6.61292 70.0863 6.71582 67.3416C6.81863 64.5991 6.88045 61.8383 6.89648 59.6658C6.90451 58.5789 6.90039 57.6438 6.88574 56.9343C6.87841 56.5793 6.86889 56.2866 6.85645 56.0623C6.85022 55.9501 6.84348 55.8594 6.83691 55.7898C6.83365 55.7552 6.83075 55.728 6.82812 55.7078L6.82422 55.6785C6.81971 55.655 6.81473 55.63 6.80957 55.6033V55.6023C6.63932 54.7202 6.16477 52.2991 6.62793 49.7751C7.10222 47.1907 8.57775 44.4482 12.2734 43.1609L12.8008 42.9832C15.4294 42.1247 17.9337 41.7202 19.9805 41.3884L21.1211 41.2C22.1937 41.0171 23.0646 40.8421 23.7393 40.6052C24.6413 40.2885 24.8725 39.9741 24.9365 39.698L25.1533 38.7097C25.3564 37.7279 25.5095 36.7715 25.5498 35.8982C25.601 34.7864 25.4625 33.945 25.1396 33.3757L25.0723 33.2654C24.9821 33.127 24.8793 32.9757 24.7646 32.8103L24.3857 32.2703C23.2014 30.59 21.2435 27.8475 20.7803 24.9636L20.7402 24.6843L20.6895 24.2927C20.4643 22.5508 20.076 19.5842 20.5488 16.6062C20.9958 13.7913 22.2312 10.8609 25.1689 8.94409C25.0332 7.79782 25.1553 6.33764 25.9248 5.04663C26.9187 3.37935 28.849 2.22634 32 2.22632L32.5762 2.23999Z" stroke="#5F819E" stroke-width="2"/>
<path d="M6.52056 116.708L4.5 106.06C4.94902 99.4788 6.61045 84.9854 9.66395 79.6613L13.7305 48.7068L31.5 55.6042M31.5 55.6042V94.6595M31.5 55.6042L49.2695 48.7068L53.3361 79.6613C56.3896 84.9854 58.051 99.4788 58.5 106.06L56.4794 116.708M31.5 94.6595L20.2581 102.542L21.7993 141.508L20.8927 186.744L20.0768 203.226M31.5 94.6595L42.7419 102.542L41.2007 141.508L42.1073 186.744L42.9232 203.226M31.5 38.2263V55.425" stroke="#E0EA8A" stroke-width="2" stroke-linecap="round" stroke-linejoin="round"/>
<path d="M33.3365 37.9829C33.3365 38.9143 32.5815 39.6692 31.6502 39.6692C30.7188 39.6692 29.9639 38.9143 29.9639 37.9829C29.9639 37.0516 30.7188 36.2966 31.6502 36.2966C32.5815 36.2966 33.3365 37.0516 33.3365 37.9829Z" fill="#009483"/>
<path d="M33.3365 55.1132C33.3365 56.0445 32.5815 56.7995 31.6502 56.7995C30.7188 56.7995 29.9639 56.0445 29.9639 55.1132C29.9639 54.1819 30.7188 53.4269 31.6502 53.4269C32.5815 53.4269 33.3365 54.1819 33.3365 55.1132Z" fill="#009483"/>
<path d="M16.0378 49.2811C16.0378 50.2125 15.2828 50.9674 14.3515 50.9674C13.4202 50.9674 12.6652 50.2125 12.6652 49.2811C12.6652 48.3498 13.4202 47.5948 14.3515 47.5948C15.2828 47.5948 16.0378 48.3498 16.0378 49.2811Z" fill="#009483"/>
<path d="M7.46733 106.179C7.46733 107.11 6.71235 107.865 5.78103 107.865C4.84971 107.865 4.09473 107.11 4.09473 106.179C4.09473 105.247 4.84971 104.492 5.78103 104.492C6.71235 104.492 7.46733 105.247 7.46733 106.179Z" fill="#009483"/>
<path d="M56.1464 106.179C56.1464 107.11 56.9014 107.865 57.8327 107.865C58.764 107.865 59.519 107.11 59.519 106.179C59.519 105.247 58.764 104.492 57.8327 104.492C56.9014 104.492 56.1464 105.247 56.1464 106.179Z" fill="#009483"/>
<path d="M11.3983 79.2884C11.3983 80.2197 10.6433 80.9747 9.71198 80.9747C8.78066 80.9747 8.02567 80.2197 8.02567 79.2884C8.02567 78.357 8.78066 77.6021 9.71198 77.6021C10.6433 77.6021 11.3983 78.357 11.3983 79.2884Z" fill="#009483"/>
<path d="M52.2145 79.2884C52.2145 80.2197 52.9695 80.9747 53.9008 80.9747C54.8321 80.9747 55.5871 80.2197 55.5871 79.2884C55.5871 78.357 54.8321 77.6021 53.9008 77.6021C52.9695 77.6021 52.2145 78.357 52.2145 79.2884Z" fill="#009483"/>
<path d="M40.6366 102.805C40.6366 103.737 41.3915 104.492 42.3229 104.492C43.2542 104.492 44.0092 103.737 44.0092 102.805C44.0092 101.874 43.2542 101.119 42.3229 101.119C41.3915 101.119 40.6366 101.874 40.6366 102.805Z" fill="#009483"/>
<path d="M39.5292 147.308C39.5292 148.239 40.2842 148.994 41.2155 148.994C42.1468 148.994 42.9018 148.239 42.9018 147.308C42.9018 146.377 42.1468 145.622 41.2155 145.622C40.2842 145.622 39.5292 146.377 39.5292 147.308Z" fill="#009483"/>
<path d="M29.9637 94.895C29.9637 95.8263 30.7187 96.5813 31.65 96.5813C32.5813 96.5813 33.3363 95.8263 33.3363 94.895C33.3363 93.9637 32.5813 93.2087 31.65 93.2087C30.7187 93.2087 29.9637 93.9637 29.9637 94.895Z" fill="#009483"/>
<path d="M18.2899 102.805C18.2899 103.737 19.0449 104.492 19.9762 104.492C20.9075 104.492 21.6625 103.737 21.6625 102.805C21.6625 101.874 20.9075 101.119 19.9762 101.119C19.0449 101.119 18.2899 101.874 18.2899 102.805Z" fill="#009483"/>
<path d="M19.9761 147.308C19.9761 148.239 20.7311 148.994 21.6624 148.994C22.5937 148.994 23.3487 148.239 23.3487 147.308C23.3487 146.377 22.5937 145.622 21.6624 145.622C20.7311 145.622 19.9761 146.377 19.9761 147.308Z" fill="#009483"/>
<path d="M19.9761 189.696C19.9761 190.627 20.7311 191.382 21.6624 191.382C22.5937 191.382 23.3487 190.627 23.3487 189.696C23.3487 188.764 22.5937 188.009 21.6624 188.009C20.7311 188.009 19.9761 188.764 19.9761 189.696Z" fill="#009483"/>
<path d="M41.2154 189.696C41.2154 190.627 41.9704 191.382 42.9017 191.382C43.833 191.382 44.588 190.627 44.588 189.696C44.588 188.764 43.833 188.009 42.9017 188.009C41.9704 188.009 41.2154 188.764 41.2154 189.696Z" fill="#009483"/>
<path d="M41.2154 203.473C41.2154 204.404 41.9704 205.159 42.9017 205.159C43.833 205.159 44.588 204.404 44.588 203.473C44.588 202.541 43.833 201.786 42.9017 201.786C41.9704 201.786 41.2154 202.541 41.2154 203.473Z" fill="#009483"/>
<path d="M19.0652 203.473C19.0652 204.404 19.8202 205.159 20.7515 205.159C21.6829 205.159 22.4378 204.404 22.4378 203.473C22.4378 202.541 21.6829 201.786 20.7515 201.786C19.8202 201.786 19.0652 202.541 19.0652 203.473Z" fill="#009483"/>
<path d="M8.72473 116.401C8.72473 117.332 7.96975 118.087 7.03843 118.087C6.10711 118.087 5.35213 117.332 5.35213 116.401C5.35213 115.469 6.10711 114.714 7.03843 114.714C7.96975 114.714 8.72473 115.469 8.72473 116.401Z" fill="#009483"/>
<path d="M54.8881 116.401C54.8881 117.332 55.643 118.087 56.5744 118.087C57.5057 118.087 58.2607 117.332 58.2607 116.401C58.2607 115.469 57.5057 114.714 56.5744 114.714C55.643 114.714 54.8881 115.469 54.8881 116.401Z" fill="#009483"/>
<path d="M50.5412 49.2811C50.5412 50.2125 49.7863 50.9674 48.8549 50.9674C47.9236 50.9674 47.1686 50.2125 47.1686 49.2811C47.1686 48.3498 47.9236 47.5948 48.8549 47.5948C49.7863 47.5948 50.5412 48.3498 50.5412 49.2811Z" fill="#009483"/>
</g>
<defs>
<clipPath id="clip0_477_9952">
<rect width="63" height="209" fill="white" transform="translate(0.5 0.226318)"/>
</clipPath>
</defs>
</svg>
