<svg width="120" height="405" viewBox="0 0 120 405" fill="none" xmlns="http://www.w3.org/2000/svg">
<path d="M47.1152 21.781C45.4596 23.1716 42.4463 27.3433 43.6386 32.9055" stroke="#5F819E" stroke-width="2" stroke-linecap="round" stroke-linejoin="round"/>
<path d="M71.856 21.781C73.5116 23.1716 76.5249 27.3433 75.3326 32.9055" stroke="#5F819E" stroke-width="2" stroke-linecap="round" stroke-linejoin="round"/>
<path d="M54.1553 22.631C52.4996 23.9153 49.4863 27.7683 50.6786 32.9055" stroke="#5F819E" stroke-width="2" stroke-linecap="round" stroke-linejoin="round"/>
<path d="M64.8159 22.631C66.4716 23.9153 69.4849 27.7683 68.2926 32.9055" stroke="#5F819E" stroke-width="2" stroke-linecap="round" stroke-linejoin="round"/>
<path d="M59.51 23.1722V32.6619" stroke="#5F819E" stroke-width="2" stroke-linecap="round" stroke-linejoin="round"/>
<path d="M35.3586 120.17C38.8417 123.942 47.6773 129.223 55.1555 120.17" stroke="#5F819E" stroke-width="2" stroke-linecap="round" stroke-linejoin="round"/>
<path d="M64.6721 120.17C68.1552 123.942 76.9908 129.223 84.469 120.17" stroke="#5F819E" stroke-width="2" stroke-linecap="round" stroke-linejoin="round"/>
<path d="M6.00317 204.303C6.88301 191.399 10.1385 162.98 16.1216 152.541L24.0899 91.8456L58.908 105.37M58.908 105.37V181.949M58.908 105.37L93.7262 91.8456L101.694 152.541C107.678 162.98 110.933 191.399 111.813 204.303M58.908 181.949L36.8802 197.405L39.9002 273.809L38.1237 362.507V369.394M58.908 181.949L80.9359 197.405L77.9159 273.809L79.6924 362.507V368.033M58.9081 71.2957V105.019" stroke="#E0EA8A" stroke-width="2" stroke-linecap="round" stroke-linejoin="round"/>
<path d="M62.5075 70.8167C62.5075 72.6429 61.0281 74.1232 59.2032 74.1232C57.3784 74.1232 55.899 72.6429 55.899 70.8167C55.899 68.9906 57.3784 67.5103 59.2032 67.5103C61.0281 67.5103 62.5075 68.9906 62.5075 70.8167Z" fill="#194B6C"/>
<path d="M62.5075 104.405C62.5075 106.232 61.0281 107.712 59.2032 107.712C57.3784 107.712 55.899 106.232 55.899 104.405C55.899 102.579 57.3784 101.099 59.2032 101.099C61.0281 101.099 62.5075 102.579 62.5075 104.405Z" fill="#194B6C"/>
<path d="M28.6117 92.9701C28.6117 94.7962 27.1324 96.2766 25.3075 96.2766C23.4827 96.2766 22.0033 94.7962 22.0033 92.9701C22.0033 91.144 23.4827 89.6636 25.3075 89.6636C27.1324 89.6636 28.6117 91.144 28.6117 92.9701Z" fill="#194B6C"/>
<path d="M10.6624 204.534C10.6624 206.36 9.18303 207.84 7.35817 207.84C5.5333 207.84 4.05396 206.36 4.05396 204.534C4.05396 202.708 5.5333 201.227 7.35817 201.227C9.18303 201.227 10.6624 202.708 10.6624 204.534Z" fill="#194B6C"/>
<path d="M108.358 204.534C108.358 206.36 109.838 207.84 111.662 207.84C113.487 207.84 114.967 206.36 114.967 204.534C114.967 202.708 113.487 201.227 111.662 201.227C109.838 201.227 108.358 202.708 108.358 204.534Z" fill="#194B6C"/>
<path d="M19.5209 151.808C19.5209 153.634 18.0416 155.114 16.2167 155.114C14.3918 155.114 12.9125 153.634 12.9125 151.808C12.9125 149.982 14.3918 148.501 16.2167 148.501C18.0416 148.501 19.5209 149.982 19.5209 151.808Z" fill="#194B6C"/>
<path d="M99.4978 151.808C99.4978 153.634 100.977 155.114 102.802 155.114C104.627 155.114 106.106 153.634 106.106 151.808C106.106 149.982 104.627 148.501 102.802 148.501C100.977 148.501 99.4978 149.982 99.4978 151.808Z" fill="#194B6C"/>
<path d="M76.8116 197.919C76.8116 199.746 78.2909 201.226 80.1158 201.226C81.9406 201.226 83.42 199.746 83.42 197.919C83.42 196.093 81.9406 194.613 80.1158 194.613C78.2909 194.613 76.8116 196.093 76.8116 197.919Z" fill="#194B6C"/>
<path d="M74.6418 285.18C74.6418 287.006 76.1211 288.486 77.946 288.486C79.7708 288.486 81.2502 287.006 81.2502 285.18C81.2502 283.353 79.7708 281.873 77.946 281.873C76.1211 281.873 74.6418 283.353 74.6418 285.18Z" fill="#194B6C"/>
<path d="M55.8987 182.409C55.8987 184.235 57.378 185.716 59.2029 185.716C61.0277 185.716 62.5071 184.235 62.5071 182.409C62.5071 180.583 61.0277 179.103 59.2029 179.103C57.378 179.103 55.8987 180.583 55.8987 182.409Z" fill="#194B6C"/>
<path d="M33.0246 197.919C33.0246 199.746 34.5039 201.226 36.3288 201.226C38.1537 201.226 39.633 199.746 39.633 197.919C39.633 196.093 38.1537 194.613 36.3288 194.613C34.5039 194.613 33.0246 196.093 33.0246 197.919Z" fill="#194B6C"/>
<path d="M36.3286 285.18C36.3286 287.006 37.808 288.486 39.6328 288.486C41.4577 288.486 42.9371 287.006 42.9371 285.18C42.9371 283.353 41.4577 281.873 39.6328 281.873C37.808 281.873 36.3286 283.353 36.3286 285.18Z" fill="#194B6C"/>
<path d="M34.0165 368.292C34.0165 370.119 35.4958 371.599 37.3207 371.599C39.1456 371.599 40.6249 370.119 40.6249 368.292C40.6249 366.466 39.1456 364.986 37.3207 364.986C35.4958 364.986 34.0165 366.466 34.0165 368.292Z" fill="#194B6C"/>
<path d="M77.9458 368.292C77.9458 370.119 79.4251 371.599 81.25 371.599C83.0749 371.599 84.5542 370.119 84.5542 368.292C84.5542 366.466 83.0749 364.986 81.25 364.986C79.4251 364.986 77.9458 366.466 77.9458 368.292Z" fill="#194B6C"/>
<path d="M96.2192 92.9701C96.2192 94.7962 94.7399 96.2766 92.915 96.2766C91.0901 96.2766 89.6108 94.7962 89.6108 92.9701C89.6108 91.144 91.0901 89.6636 92.915 89.6636C94.7399 89.6636 96.2192 91.144 96.2192 92.9701Z" fill="#194B6C"/>
<path d="M60.5481 1.67249C66.1337 1.80138 69.3987 3.90692 71.0793 6.72815C72.588 9.26076 72.71 12.1963 72.344 14.36C78.1736 17.9136 80.6153 23.5372 81.4905 29.0524C82.2797 34.0263 81.8116 39.0015 81.386 42.4625L81.2102 43.8492L81.1116 44.6207C80.4975 49.4961 77.4774 54.2554 75.1047 57.6793L74.136 59.0612C73.7339 59.632 73.3726 60.1463 73.0627 60.6041L72.7708 61.0426C71.8805 62.4098 71.5706 64.3772 71.6809 66.7731C71.7902 69.1475 72.3029 71.7906 72.9065 74.3961L72.9592 74.5875C73.2577 75.527 74.1213 76.2519 75.8684 76.8658C77.73 77.52 80.2752 77.9356 83.3977 78.442L85.0461 78.7115C88.989 79.3645 93.5806 80.2189 98.3372 81.8766L98.9661 82.108C105.344 84.5752 107.915 89.4474 108.771 94.1119C109.534 98.2726 108.947 102.307 108.565 104.407L108.418 105.183L108.389 105.333C108.333 105.626 108.279 106.511 108.249 107.957C108.22 109.36 108.214 111.203 108.23 113.339C108.261 117.609 108.381 123.031 108.583 128.418C108.785 133.806 109.069 139.147 109.427 143.256C109.606 145.314 109.802 147.044 110.013 148.311C110.119 148.947 110.224 149.443 110.326 149.796C110.377 149.972 110.422 150.093 110.456 150.17C110.464 150.188 110.472 150.2 110.477 150.21C111.61 151.342 112.926 153.52 114.053 155.869C115.209 158.279 116.238 161.021 116.715 163.298L116.758 163.526C116.968 164.754 117.105 167.272 117.213 170.413C117.33 173.809 117.416 178.056 117.506 182.473L117.669 190.059C117.848 197.553 118.092 204.414 118.565 207.42L118.657 208.085C119.386 214.046 117.257 219.531 114.897 224.699L113.841 226.975C113.642 227.402 113.443 227.827 113.246 228.252L112.663 229.521C111.379 232.357 110.119 234.204 109.027 235.363C108.481 235.943 107.965 236.362 107.498 236.645C107.049 236.917 106.578 237.103 106.132 237.121C105.834 237.132 105.547 237.011 105.348 236.79C105.149 236.568 105.06 236.269 105.104 235.974L105.388 234.07C104.934 234.183 104.48 234.191 104.039 234.102C103.011 233.894 102.25 233.209 101.85 232.666C101.606 232.334 101.589 231.887 101.809 231.539L106.316 224.396C106.662 223.601 107.115 222.34 107.372 221.095C107.504 220.457 107.579 219.855 107.572 219.339C107.571 219.293 107.569 219.249 107.567 219.206C107.254 219.916 106.937 220.849 106.633 221.805L106.302 222.863C106.086 223.56 105.873 224.25 105.681 224.783L105.495 225.257C105.044 226.305 104.269 226.851 103.437 227.011C102.674 227.158 101.957 226.966 101.51 226.748C101.161 226.577 100.942 226.219 100.949 225.831C100.983 223.952 101.171 219.474 101.671 216.777L101.74 216.442C102.111 214.809 102.854 213.82 103.669 212.722L104.01 212.26C104.827 211.143 105.78 209.716 106.781 207.205L106.875 206.958C107.811 204.37 107.604 200.923 106.598 196.649C105.823 193.361 104.604 189.693 103.188 185.709L101.715 181.621C99.7492 176.206 98.8942 170.638 98.261 165.728L98.0012 163.667C97.4653 159.38 97.0146 155.854 96.0569 153.412L95.8586 152.937C94.7906 150.551 93.3312 145.619 91.9543 140.507C90.7044 135.867 89.5042 131.001 88.6946 127.581C86.8618 128.407 84.9569 130.54 83.5667 133.767C81.9673 137.48 81.1624 142.414 81.9485 147.711L82.0481 148.343C83.1185 154.808 85.532 158.875 88.4016 163.699L89.2688 165.161C91.3162 168.635 93.5192 172.602 95.5051 178.063L95.7014 178.642C96.6662 181.674 97.3263 186.663 97.7473 192.507C98.1993 198.782 98.3833 206.163 98.3352 213.432C98.2871 220.701 98.0075 227.874 97.5315 233.733C97.2935 236.662 97.0051 239.274 96.6702 241.41C96.3804 243.258 96.0469 244.81 95.6575 245.911L95.4875 246.354C93.8935 250.162 92.6178 256.598 92.1155 263.738C91.6142 270.864 91.8919 278.576 93.3342 284.92C94.8373 291.53 94.9206 301.442 94.5989 310.065C94.3567 316.557 93.8819 322.389 93.5813 325.661L93.3538 328.009C93.3005 328.529 93.1064 329.449 92.8381 330.645L92.5481 331.929C91.521 336.452 89.7748 344.143 88.8899 352.81C88.0037 361.49 87.9906 371.069 90.3782 379.382L90.9104 381.251C92.108 385.493 92.9892 388.916 93.4758 391.67C94.0264 394.785 94.1068 397.212 93.4358 399.048C92.7236 400.997 91.2353 402.116 89.1379 402.752C87.3574 403.291 85.0503 403.512 82.2278 403.619L80.9856 403.659C77.5628 403.749 75.0689 403.08 73.385 401.713C71.6776 400.326 70.9718 398.363 70.8323 396.255C70.694 394.165 71.1033 391.844 71.7063 389.575C72.3115 387.298 73.1342 384.996 73.8674 382.945L74.134 382.198L74.261 381.827C75.5407 377.945 75.7118 372.768 75.092 366.277C74.5338 360.431 73.3457 353.612 71.8254 345.859L71.1536 342.479C67.4754 324.146 64.8831 305.374 64.8831 297.001C64.8831 294.266 65.0424 291.15 65.2024 288.011L65.3235 285.58C65.4401 283.153 65.5351 280.757 65.5374 278.528C65.5402 275.73 65.3961 273.263 64.9944 271.371L64.9114 271C64.6 269.706 64.17 266.563 63.6809 262.402C63.1882 258.21 62.627 252.909 62.0569 247.246C61.346 240.184 60.6228 232.552 59.9993 225.787C59.3757 232.552 58.6535 240.184 57.9426 247.246C57.3725 252.909 56.8113 258.21 56.3186 262.402C55.8907 266.042 55.5086 268.904 55.2112 270.429L55.0891 271C54.6232 272.935 54.4601 275.543 54.4631 278.528C54.4662 281.5 54.6329 284.77 54.7981 288.011L54.9153 290.355C55.0275 292.684 55.1165 294.95 55.1165 297.001C55.1164 304.85 52.8383 321.84 49.5227 339.04L48.8459 342.479C47.0072 351.644 45.5464 359.596 44.9084 366.277C44.2687 372.977 44.4714 378.278 45.8665 382.198L46.1321 382.945L46.6946 384.526C47.2638 386.146 47.8403 387.867 48.2942 389.575C48.8972 391.844 49.3055 394.165 49.1672 396.255C49.0277 398.363 48.3221 400.326 46.6145 401.713C45.0357 402.994 42.7455 403.663 39.6448 403.667L39.0139 403.659C35.6197 403.569 32.8966 403.368 30.8616 402.752C28.7642 402.116 27.2759 400.997 26.5637 399.048C25.8928 397.212 25.9741 394.785 26.5247 391.67C27.0807 388.523 28.1512 384.501 29.6213 379.382L29.8391 378.599C32.0081 370.471 31.9681 361.219 31.1096 352.81C30.3353 345.226 28.9027 338.39 27.8684 333.769L27.4524 331.929C27.0901 330.334 26.7984 329.059 26.6838 328.301L26.6467 328.009C26.4619 326.203 25.7236 318.721 25.4006 310.065C25.079 301.442 25.1632 291.53 26.6663 284.92C28.1086 278.576 28.3863 270.864 27.885 263.738C27.4142 257.044 26.2633 250.97 24.8079 247.099L24.5129 246.354C24.0493 245.246 23.6605 243.522 23.3293 241.41C22.9944 239.274 22.707 236.662 22.469 233.733C21.9929 227.874 21.7134 220.701 21.6653 213.432C21.6172 206.163 21.8002 198.782 22.2522 192.507C22.7013 186.274 23.4227 181.013 24.4954 178.063L24.9241 176.915C27.083 171.287 29.46 167.292 31.5979 163.699L32.6848 161.863C35.157 157.635 37.1633 153.692 38.051 147.711L38.1204 147.214C38.7863 142.106 37.9831 137.364 36.4338 133.767C35.0435 130.54 33.1378 128.407 31.3049 127.581C30.4953 131.001 29.2961 135.867 28.0461 140.507C26.7553 145.299 25.3914 149.934 24.3459 152.461L24.1409 152.937C23.1813 155.081 22.6989 158.187 22.2102 161.993L21.9993 163.667C21.3481 168.875 20.5812 175.034 18.4915 181.04L18.2854 181.621C16.2575 187.206 14.4353 192.265 13.4026 196.649C12.3637 201.06 12.1764 204.591 13.219 207.205L13.4329 207.727C14.4978 210.255 15.5003 211.603 16.3313 212.722L16.6526 213.158C17.3904 214.168 18.0304 215.17 18.3284 216.777L18.4182 217.302C18.8511 220.024 19.0184 224.071 19.05 225.832C19.0568 226.22 18.8384 226.577 18.4895 226.748C18.0425 226.966 17.3255 227.158 16.5627 227.011C15.7823 226.861 15.0532 226.372 14.593 225.448L14.5042 225.257C14.3861 224.983 14.2566 224.617 14.1204 224.203L13.6975 222.863C13.2966 221.57 12.8613 220.18 12.4329 219.207C12.431 219.249 12.4296 219.293 12.429 219.339C12.4217 219.855 12.4953 220.458 12.6272 221.095C12.8844 222.339 13.338 223.601 13.6838 224.396L18.1907 231.539C18.4104 231.887 18.3941 232.334 18.1497 232.666C17.7491 233.209 16.9882 233.894 15.9602 234.102C15.5186 234.191 15.0649 234.183 14.6106 234.07L14.8958 235.974C14.9397 236.269 14.8503 236.568 14.6516 236.79C14.4528 237.011 14.165 237.132 13.8674 237.121C13.4213 237.103 12.9505 236.917 12.5012 236.645C12.0342 236.362 11.519 235.943 10.9729 235.363C9.94908 234.276 8.77747 232.585 7.57642 230.042L7.33618 229.521C7.14463 229.098 6.94967 228.676 6.75317 228.252L6.15942 226.975C3.34992 220.957 0.315994 214.527 1.43481 207.42L1.49341 207.024C2.08011 202.734 2.29539 192.236 2.49341 182.473L2.62915 176.06C2.67652 174.022 2.72781 172.111 2.78638 170.413C2.90187 167.064 3.04938 164.422 3.28442 163.298L3.38013 162.866C3.89029 160.679 4.86375 158.128 5.94751 155.869C7.07416 153.52 8.38924 151.342 9.52271 150.21C9.52749 150.2 9.53501 150.188 9.54321 150.17C9.57765 150.093 9.62297 149.972 9.67407 149.796C9.77609 149.443 9.88179 148.947 9.98755 148.311C10.1983 147.044 10.3943 145.314 10.5735 143.256C10.9315 139.147 11.2154 133.806 11.4172 128.418C11.619 123.031 11.7383 117.609 11.7698 113.339C11.7855 111.203 11.7792 109.36 11.7502 107.957C11.7279 106.872 11.6928 106.103 11.6526 105.663L11.6106 105.333L11.5823 105.183C11.2493 103.457 10.3577 98.867 11.2297 94.1119C12.1129 89.2969 14.8234 84.2604 21.6633 81.8766L22.6799 81.5328C27.7482 79.8765 32.5874 79.0933 36.6028 78.442L38.8342 78.0748C40.9545 77.7134 42.7349 77.3564 44.1311 76.8658C45.9946 76.211 46.8535 75.4301 47.093 74.3971L47.3147 73.4186C47.8188 71.1345 48.2239 68.8509 48.3196 66.7731C48.423 64.527 48.157 62.6577 47.3899 61.3063L47.2297 61.0426C47.0472 60.7623 46.8393 60.4576 46.6106 60.1276L45.8635 59.0612C43.5103 55.7202 39.8298 50.529 38.9641 45.1422L38.8889 44.6207L38.7903 43.8492C38.3479 40.4236 37.608 34.7372 38.51 29.0524C39.3851 23.5376 41.8257 17.9136 47.6545 14.36C47.2886 12.1963 47.4125 9.26066 48.9211 6.72815C50.656 3.81599 54.0791 1.66666 60.0002 1.66663L60.5481 1.67249Z" stroke="#5F819E" stroke-width="2" stroke-linejoin="round"/>
<path d="M52.0168 213.316C54.826 214.154 61.9522 215.328 67.9836 213.316" stroke="#5F819E" stroke-width="2" stroke-linecap="round" stroke-linejoin="round"/>
</svg>
