<svg width="123" height="393" viewBox="0 0 123 393" fill="none" xmlns="http://www.w3.org/2000/svg">
<path d="M7.86627 192.303C8.74611 179.399 12.0016 150.98 17.9847 140.541L25.953 79.8456L60.7711 93.3699M60.7711 93.3699V169.949M60.7711 93.3699L95.5893 79.8456L103.558 140.541C109.541 150.98 112.796 179.399 113.676 192.303M60.7711 169.949L38.7433 185.405L41.7633 261.809L39.9868 350.507V357.394M60.7711 169.949L82.799 185.405L79.779 261.809L81.5555 350.507V356.033M60.7712 59.2957V93.0187" stroke="#E0EA8A" stroke-width="2" stroke-linecap="round" stroke-linejoin="round"/>
<path d="M64.3706 58.8167C64.3706 60.6429 62.8912 62.1232 61.0663 62.1232C59.2415 62.1232 57.7621 60.6429 57.7621 58.8167C57.7621 56.9906 59.2415 55.5103 61.0663 55.5103C62.8912 55.5103 64.3706 56.9906 64.3706 58.8167Z" fill="#194B6C"/>
<path d="M64.3706 92.4055C64.3706 94.2316 62.8912 95.7119 61.0663 95.7119C59.2415 95.7119 57.7621 94.2316 57.7621 92.4055C57.7621 90.5793 59.2415 89.099 61.0663 89.099C62.8912 89.099 64.3706 90.5793 64.3706 92.4055Z" fill="#194B6C"/>
<path d="M30.4748 80.9701C30.4748 82.7962 28.9955 84.2766 27.1706 84.2766C25.3458 84.2766 23.8664 82.7962 23.8664 80.9701C23.8664 79.144 25.3458 77.6636 27.1706 77.6636C28.9955 77.6636 30.4748 79.144 30.4748 80.9701Z" fill="#194B6C"/>
<path d="M12.5255 192.534C12.5255 194.36 11.0461 195.84 9.22127 195.84C7.3964 195.84 5.91705 194.36 5.91705 192.534C5.91705 190.708 7.3964 189.227 9.22127 189.227C11.0461 189.227 12.5255 190.708 12.5255 192.534Z" fill="#194B6C"/>
<path d="M110.221 192.534C110.221 194.36 111.701 195.84 113.526 195.84C115.35 195.84 116.83 194.36 116.83 192.534C116.83 190.708 115.35 189.227 113.526 189.227C111.701 189.227 110.221 190.708 110.221 192.534Z" fill="#194B6C"/>
<path d="M21.384 139.808C21.384 141.634 19.9047 143.114 18.0798 143.114C16.2549 143.114 14.7756 141.634 14.7756 139.808C14.7756 137.982 16.2549 136.501 18.0798 136.501C19.9047 136.501 21.384 137.982 21.384 139.808Z" fill="#194B6C"/>
<path d="M101.361 139.808C101.361 141.634 102.84 143.114 104.665 143.114C106.49 143.114 107.969 141.634 107.969 139.808C107.969 137.982 106.49 136.501 104.665 136.501C102.84 136.501 101.361 137.982 101.361 139.808Z" fill="#194B6C"/>
<path d="M78.6747 185.919C78.6747 187.746 80.154 189.226 81.9789 189.226C83.8037 189.226 85.2831 187.746 85.2831 185.919C85.2831 184.093 83.8037 182.613 81.9789 182.613C80.154 182.613 78.6747 184.093 78.6747 185.919Z" fill="#194B6C"/>
<path d="M76.5049 273.18C76.5049 275.006 77.9842 276.486 79.8091 276.486C81.6339 276.486 83.1133 275.006 83.1133 273.18C83.1133 271.353 81.6339 269.873 79.8091 269.873C77.9842 269.873 76.5049 271.353 76.5049 273.18Z" fill="#194B6C"/>
<path d="M57.7618 170.409C57.7618 172.235 59.2411 173.716 61.066 173.716C62.8908 173.716 64.3702 172.235 64.3702 170.409C64.3702 168.583 62.8908 167.103 61.066 167.103C59.2411 167.103 57.7618 168.583 57.7618 170.409Z" fill="#194B6C"/>
<path d="M34.8877 185.919C34.8877 187.746 36.367 189.226 38.1919 189.226C40.0168 189.226 41.4961 187.746 41.4961 185.919C41.4961 184.093 40.0168 182.613 38.1919 182.613C36.367 182.613 34.8877 184.093 34.8877 185.919Z" fill="#194B6C"/>
<path d="M38.1917 273.18C38.1917 275.006 39.6711 276.486 41.4959 276.486C43.3208 276.486 44.8002 275.006 44.8002 273.18C44.8002 271.353 43.3208 269.873 41.4959 269.873C39.6711 269.873 38.1917 271.353 38.1917 273.18Z" fill="#194B6C"/>
<path d="M35.8796 356.292C35.8796 358.119 37.3589 359.599 39.1838 359.599C41.0087 359.599 42.488 358.119 42.488 356.292C42.488 354.466 41.0087 352.986 39.1838 352.986C37.3589 352.986 35.8796 354.466 35.8796 356.292Z" fill="#194B6C"/>
<path d="M79.8089 356.292C79.8089 358.119 81.2882 359.599 83.1131 359.599C84.938 359.599 86.4173 358.119 86.4173 356.292C86.4173 354.466 84.938 352.986 83.1131 352.986C81.2882 352.986 79.8089 354.466 79.8089 356.292Z" fill="#194B6C"/>
<path d="M98.0823 80.9701C98.0823 82.7962 96.603 84.2766 94.7781 84.2766C92.9532 84.2766 91.4739 82.7962 91.4739 80.9701C91.4739 79.144 92.9532 77.6636 94.7781 77.6636C96.603 77.6636 98.0823 79.144 98.0823 80.9701Z" fill="#194B6C"/>
<path d="M33.7803 200.712C37.6942 202.9 47.6227 205.963 56.0259 200.712" stroke="#5F819E" stroke-width="2" stroke-linecap="round" stroke-linejoin="round"/>
<path d="M66.7198 200.712C70.6337 202.9 80.5622 205.963 88.9654 200.712" stroke="#5F819E" stroke-width="2" stroke-linecap="round" stroke-linejoin="round"/>
<mask id="path-5-outside-1_491_3006" maskUnits="userSpaceOnUse" x="-0.789978" y="0.11084" width="124" height="393" fill="black">
<rect fill="white" x="-0.789978" y="0.11084" width="124" height="393"/>
<path fill-rule="evenodd" clip-rule="evenodd" d="M56.9986 2.3073C62.1076 1.37842 76.366 3.73461 78.6059 9.56242C81.9637 18.2988 80.2089 28.2076 79.4251 32.6335C79.3313 33.163 79.2515 33.614 79.1959 33.9751C78.6639 37.4331 77.4288 40.8661 75.8868 42.8108C75.1857 43.6952 74.1072 44.7138 73.1071 45.6584C71.908 46.791 70.8214 47.8173 70.6326 48.3785C70.2863 49.4076 70.1307 56.6563 71.8646 58.6379C74.0319 61.1149 77.4703 63.4015 88.8939 68.5458C91.1764 69.5737 93.4754 70.3345 95.6709 71.0611C104.464 73.971 111.597 76.3318 109.368 93.0965C110.171 100.544 111.249 116.692 111.497 135.27C113.922 138.572 118.773 149.234 118.773 165.458V193.015L120.161 199.162C120.161 199.162 121.188 203.379 119.845 205.984C118.501 208.59 108.246 225.37 108.246 225.37C107.575 225.267 106.636 224.287 108.246 221.19C107.241 221.562 104.986 222.018 104.003 220.871C105.228 218.705 107.791 214.127 108.246 213.144C108.814 211.916 110.4 205.846 109.172 205.468C108.66 206.44 107.432 208.937 106.613 211.148C106.571 211.263 106.529 211.377 106.487 211.489C105.535 214.071 104.875 215.861 102.57 215.959C102.707 215.345 102.99 213.82 103.031 212.632C103.082 211.148 104.221 199.057 107.599 196.089C109.652 194.285 109.198 191.142 108.749 188.038C108.607 187.058 108.466 186.081 108.404 185.151C104.45 174.434 96.8991 150.753 98.3299 141.771C96.7906 139.086 94.9194 129.653 93.4114 122.051C92.2589 116.241 91.3184 111.5 90.9004 111.658C90.2558 111.902 90.0433 124.935 89.8176 138.779C89.7054 145.663 89.5899 152.747 89.4164 158.56C89.1299 168.157 90.574 171.941 92.002 175.682C93.178 178.763 94.343 181.815 94.5215 188.062C94.9094 201.637 94.1816 216.979 93.4413 232.585C93.2386 236.858 93.035 241.15 92.853 245.431C92.2239 260.237 92.2431 267.762 92.2494 270.234C92.2499 270.432 92.2504 270.598 92.2504 270.733C94.5542 277.673 97.838 296.19 92.2504 320.877C90.4389 327.547 86.9642 342.171 87.557 347.309C88.1499 352.447 90.9329 369.376 92.2504 377.198C94.1442 381.397 95.1652 389.944 84.0987 390.537C78.829 391.607 69.1788 390.438 72.7359 377.198C77.1822 360.648 77.9233 352.743 76.1941 344.344C75.889 342.862 75.3916 340.733 74.7792 338.111C71.9214 325.876 66.5604 302.926 66.5604 285.06C66.5604 281.175 66.6977 279.631 66.8397 278.033C66.9921 276.319 67.15 274.543 67.15 269.753C67.15 260.53 61.4159 202.496 61.3732 202.064C61.3312 202.489 55.5965 260.53 55.5965 269.753C55.5965 274.543 55.7543 276.319 55.9067 278.033C56.0488 279.631 56.1861 281.175 56.1861 285.06C56.1861 302.926 50.8251 325.876 47.9672 338.111C47.3549 340.733 46.8574 342.862 46.5523 344.344C44.8232 352.743 45.5642 360.648 50.0106 377.198C53.5676 390.438 43.9174 391.607 38.6477 390.537C27.5812 389.944 28.6022 381.397 30.4961 377.198C31.8135 369.376 34.5966 352.447 35.1894 347.309C35.7823 342.171 32.3075 327.547 30.4961 320.877C24.9084 296.19 28.1923 277.673 30.4961 270.733C30.4961 270.598 30.4965 270.432 30.497 270.234C30.5033 267.762 30.5225 260.237 29.8934 245.431C29.7115 241.15 29.5079 236.858 29.3052 232.585C28.5648 216.979 27.837 201.637 28.2249 188.062C28.4034 181.815 29.5684 178.763 30.7444 175.682C32.1724 171.941 33.6166 168.158 33.33 158.56C33.1565 152.747 33.041 145.662 32.9288 138.779C32.7031 124.935 32.4906 111.902 31.8461 111.658C31.428 111.5 30.4876 116.241 29.335 122.051C27.827 129.653 25.9559 139.086 24.4165 141.771C25.8473 150.753 18.2964 174.434 14.342 185.151C14.2806 186.081 14.1394 187.058 13.9976 188.039C13.5488 191.143 13.0945 194.285 15.1479 196.089C18.5254 199.057 19.6642 211.148 19.7154 212.632C19.7563 213.82 20.0395 215.345 20.176 215.959C17.871 215.861 17.211 214.071 16.2592 211.49C16.2178 211.377 16.1758 211.263 16.1332 211.148C15.3144 208.938 14.0862 206.44 13.5744 205.468C12.3462 205.846 13.9326 211.916 14.5006 213.144C14.955 214.127 17.5183 218.705 18.7431 220.871C17.7605 222.018 15.5054 221.562 14.5006 221.191C16.1107 224.287 15.1715 225.267 14.5006 225.37C14.5006 225.37 4.24495 208.59 2.9018 205.984C1.55865 203.379 2.58543 199.162 2.58543 199.162L3.97343 193.015V165.458C3.97343 149.234 8.82436 138.573 11.2498 135.27C11.4975 116.692 12.5751 100.544 13.3789 93.0965C11.1493 76.3318 18.2828 73.9711 27.0755 71.0611C29.271 70.3345 31.57 69.5737 33.8525 68.5458C45.2761 63.4015 48.7145 61.1149 50.8819 58.6379C52.6158 56.6563 52.4601 49.4076 52.1139 48.3785C51.9251 47.8173 50.8385 46.791 49.6393 45.6584C48.6392 44.7138 47.5608 43.6952 46.8596 42.8108C45.3177 40.8661 44.0825 37.4332 43.5505 33.9751C43.495 33.614 43.4151 33.163 43.3213 32.6336C42.5375 28.2076 40.7827 18.2989 44.1405 9.56243C45.8496 5.11587 51.939 2.7682 56.9988 2.31774L56.9986 2.3073Z"/>
</mask>
<path d="M78.6059 9.56242L76.739 10.2799V10.2799L78.6059 9.56242ZM56.9986 2.3073L56.6408 0.339553C55.6735 0.515417 54.9775 1.36822 54.9991 2.35113L56.9986 2.3073ZM79.4251 32.6335L81.3945 32.9823V32.9823L79.4251 32.6335ZM79.1959 33.9751L81.1727 34.2792V34.2792L79.1959 33.9751ZM75.8868 42.8108L74.3197 41.5683V41.5683L75.8868 42.8108ZM73.1071 45.6584L74.4804 47.1124V47.1124L73.1071 45.6584ZM70.6326 48.3785L72.5282 49.0162V49.0162L70.6326 48.3785ZM71.8646 58.6379L70.3594 59.9549L71.8646 58.6379ZM88.8939 68.5458L88.0727 70.3695L88.8939 68.5458ZM95.6709 71.0611L95.0426 72.9599L95.6709 71.0611ZM109.368 93.0965L107.385 92.8328C107.364 92.9914 107.362 93.152 107.379 93.3111L109.368 93.0965ZM111.497 135.27L109.497 135.296C109.502 135.713 109.638 136.118 109.885 136.454L111.497 135.27ZM118.773 193.015H116.773C116.773 193.163 116.789 193.311 116.822 193.455L118.773 193.015ZM120.161 199.162L118.21 199.602C118.213 199.613 118.215 199.624 118.218 199.635L120.161 199.162ZM108.246 225.37L107.942 227.347C108.739 227.47 109.532 227.102 109.952 226.413L108.246 225.37ZM108.246 221.19L110.02 222.113C110.402 221.38 110.293 220.488 109.746 219.868C109.199 219.248 108.328 219.028 107.553 219.314L108.246 221.19ZM104.003 220.871L102.262 219.887C101.848 220.62 101.937 221.534 102.485 222.173L104.003 220.871ZM108.246 213.144L110.061 213.984L108.246 213.144ZM109.172 205.468L109.76 203.556C108.841 203.273 107.85 203.685 107.402 204.536L109.172 205.468ZM106.613 211.148L108.489 211.843L108.489 211.843L106.613 211.148ZM106.487 211.489L104.611 210.797L104.611 210.797L106.487 211.489ZM102.57 215.959L100.618 215.525C100.483 216.132 100.638 216.767 101.037 217.243C101.436 217.719 102.034 217.983 102.655 217.957L102.57 215.959ZM103.031 212.632L105.03 212.701L103.031 212.632ZM107.599 196.089L106.278 194.587L107.599 196.089ZM108.749 188.038L110.728 187.752V187.752L108.749 188.038ZM108.404 185.151L110.4 185.019C110.387 184.828 110.347 184.639 110.281 184.459L108.404 185.151ZM98.3299 141.771L100.305 142.085C100.377 141.634 100.292 141.172 100.065 140.776L98.3299 141.771ZM93.4114 122.051L91.4496 122.44L93.4114 122.051ZM90.9004 111.658L91.6092 113.528L91.6092 113.528L90.9004 111.658ZM89.8176 138.779L87.8179 138.746L89.8176 138.779ZM89.4164 158.56L91.4155 158.619L89.4164 158.56ZM92.002 175.682L90.1335 176.395V176.395L92.002 175.682ZM94.5215 188.062L96.5207 188.005L94.5215 188.062ZM93.4413 232.585L95.439 232.68L93.4413 232.585ZM92.853 245.431L94.8512 245.516L92.853 245.431ZM92.2494 270.234L94.2494 270.229L92.2494 270.234ZM92.2504 270.733H90.2504C90.2504 270.947 90.2848 271.159 90.3522 271.363L92.2504 270.733ZM92.2504 320.877L94.1805 321.402C94.1879 321.374 94.1948 321.347 94.201 321.319L92.2504 320.877ZM87.557 347.309L89.5438 347.079L87.557 347.309ZM92.2504 377.198L90.2782 377.53C90.3066 377.699 90.3567 377.864 90.4272 378.02L92.2504 377.198ZM84.0987 390.537L83.9917 388.54C83.8939 388.545 83.7966 388.557 83.7006 388.577L84.0987 390.537ZM72.7359 377.198L74.6674 377.717L72.7359 377.198ZM76.1941 344.344L78.153 343.941L76.1941 344.344ZM74.7792 338.111L72.8316 338.566L74.7792 338.111ZM66.8397 278.033L64.8476 277.856L66.8397 278.033ZM61.3732 202.064L63.3635 201.867C63.2624 200.844 62.4016 200.064 61.3732 200.064C60.3448 200.064 59.4841 200.844 59.3829 201.867L61.3732 202.064ZM55.9067 278.033L57.8988 277.856L55.9067 278.033ZM47.9672 338.111L49.9148 338.566L47.9672 338.111ZM46.5523 344.344L44.5934 343.941L46.5523 344.344ZM50.0106 377.198L51.9421 376.679L50.0106 377.198ZM38.6477 390.537L39.0458 388.577C38.9498 388.557 38.8525 388.545 38.7547 388.54L38.6477 390.537ZM30.4961 377.198L32.3192 378.02C32.3897 377.864 32.4398 377.699 32.4683 377.53L30.4961 377.198ZM30.4961 320.877L28.5454 321.319C28.5517 321.347 28.5585 321.374 28.566 321.402L30.4961 320.877ZM30.4961 270.733L32.3942 271.363C32.4617 271.159 32.4961 270.947 32.4961 270.733H30.4961ZM30.497 270.234L32.497 270.239V270.239L30.497 270.234ZM29.8934 245.431L31.8916 245.346L29.8934 245.431ZM29.3052 232.585L27.3074 232.68L29.3052 232.585ZM28.2249 188.062L26.2257 188.005L28.2249 188.062ZM30.7444 175.682L28.8759 174.969L30.7444 175.682ZM33.33 158.56L35.3292 158.5L33.33 158.56ZM32.9288 138.779L30.9291 138.811L32.9288 138.779ZM31.8461 111.658L32.5549 109.788H32.5549L31.8461 111.658ZM29.335 122.051L31.2968 122.44L29.335 122.051ZM24.4165 141.771L22.6816 140.776C22.4543 141.172 22.3696 141.634 22.4415 142.085L24.4165 141.771ZM14.342 185.151L12.4657 184.459C12.3992 184.639 12.359 184.828 12.3464 185.02L14.342 185.151ZM13.9976 188.039L15.977 188.325H15.977L13.9976 188.039ZM15.1479 196.089L16.4681 194.587H16.4681L15.1479 196.089ZM20.176 215.959L20.0909 217.957C20.712 217.983 21.3099 217.72 21.7091 217.243C22.1082 216.767 22.2632 216.132 22.1283 215.525L20.176 215.959ZM16.2592 211.49L18.1357 210.798L18.1357 210.798L16.2592 211.49ZM16.1332 211.148L18.0087 210.454L18.0087 210.454L16.1332 211.148ZM13.5744 205.468L15.3442 204.536C14.8963 203.685 13.9058 203.273 12.9865 203.556L13.5744 205.468ZM14.5006 213.144L16.3159 212.305H16.3159L14.5006 213.144ZM18.7431 220.871L20.2616 222.173C20.8095 221.534 20.8984 220.62 20.4841 219.887L18.7431 220.871ZM14.5006 221.191L15.1938 219.315C14.4186 219.028 13.547 219.248 13.0005 219.868C12.4539 220.488 12.3449 221.38 12.7262 222.113L14.5006 221.191ZM14.5006 225.37L12.7941 226.413C13.2147 227.102 14.0076 227.47 14.8047 227.347L14.5006 225.37ZM2.9018 205.984L1.12406 206.901H1.12406L2.9018 205.984ZM2.58543 199.162L4.52866 199.635C4.5313 199.624 4.53385 199.613 4.53631 199.602L2.58543 199.162ZM3.97343 193.015L5.92431 193.455C5.95695 193.311 5.97343 193.163 5.97343 193.015H3.97343ZM11.2498 135.27L12.8618 136.454C13.1085 136.118 13.2441 135.713 13.2496 135.297L11.2498 135.27ZM13.3789 93.0965L15.3673 93.3111C15.3845 93.152 15.3825 92.9914 15.3614 92.8328L13.3789 93.0965ZM27.0755 71.0611L27.7039 72.9599H27.7039L27.0755 71.0611ZM33.8525 68.5458L34.6738 70.3695L33.8525 68.5458ZM50.8819 58.6379L52.387 59.9549L50.8819 58.6379ZM52.1139 48.3785L50.2183 49.0162L50.2183 49.0162L52.1139 48.3785ZM49.6393 45.6584L48.266 47.1124H48.266L49.6393 45.6584ZM46.8596 42.8108L48.4268 41.5683L46.8596 42.8108ZM43.5505 33.9751L45.5273 33.671V33.671L43.5505 33.9751ZM43.3213 32.6336L41.352 32.9823V32.9823L43.3213 32.6336ZM44.1405 9.56243L46.0074 10.28L44.1405 9.56243ZM56.9988 2.31774L57.1762 4.30986C58.2247 4.21651 59.0214 3.32634 58.9983 2.2739L56.9988 2.31774ZM80.4728 8.8449C79.6804 6.7834 77.9281 5.24782 76.0227 4.11891C74.0833 2.96983 71.7452 2.09885 69.3959 1.46926C64.7595 0.226798 59.5962 -0.197772 56.6408 0.339553L57.3563 4.27504C59.51 3.88349 64.0305 4.17257 68.3605 5.33294C70.4943 5.90477 72.4601 6.65749 73.9838 7.56024C75.5415 8.48316 76.4114 9.42753 76.739 10.2799L80.4728 8.8449ZM81.3945 32.9823C82.1685 28.6113 84.0565 18.1693 80.4728 8.8449L76.739 10.2799C79.8709 18.4284 78.2493 27.8038 77.4558 32.2848L81.3945 32.9823ZM81.1727 34.2792C81.224 33.9455 81.2992 33.52 81.3945 32.9823L77.4558 32.2848C77.3634 32.806 77.279 33.2824 77.2192 33.671L81.1727 34.2792ZM77.454 44.0534C79.2984 41.7272 80.6142 37.909 81.1727 34.2792L77.2192 33.671C76.7136 36.9573 75.5591 40.0051 74.3197 41.5683L77.454 44.0534ZM74.4804 47.1124C75.444 46.2022 76.6438 45.0752 77.454 44.0534L74.3197 41.5683C73.7275 42.3152 72.7704 43.2253 71.7338 44.2044L74.4804 47.1124ZM72.5282 49.0162C72.4691 49.1917 72.4115 49.2316 72.5201 49.0893C72.6055 48.9775 72.7418 48.8198 72.9405 48.6107C73.3407 48.1897 73.8682 47.6906 74.4804 47.1124L71.7338 44.2044C71.1468 44.7588 70.5315 45.3391 70.0414 45.8548C69.795 46.114 69.5493 46.3888 69.3403 46.6626C69.1546 46.906 68.8904 47.2847 68.737 47.7407L72.5282 49.0162ZM73.3697 57.3209C73.2763 57.2141 73.0486 56.7987 72.8411 55.8958C72.6503 55.0651 72.5281 54.0586 72.4648 53.0283C72.4019 52.0052 72.4 51.0099 72.4334 50.2215C72.4501 49.8268 72.4749 49.5002 72.5023 49.2583C72.5353 48.9671 72.5584 48.9264 72.5282 49.0162L68.737 47.7407C68.6202 48.0878 68.5627 48.4987 68.5277 48.8086C68.487 49.1679 68.4565 49.5919 68.437 50.0524C68.3979 50.9745 68.4006 52.1083 68.4723 53.2737C68.5435 54.4319 68.6858 55.6734 68.9427 56.7914C69.1829 57.837 69.5859 59.0708 70.3594 59.9549L73.3697 57.3209ZM89.7151 66.7222C78.2469 61.5578 75.2097 59.4237 73.3697 57.3209L70.3594 59.9549C72.8542 62.806 76.6937 65.2452 88.0727 70.3695L89.7151 66.7222ZM96.2993 69.1624C94.0908 68.4315 91.8886 67.701 89.7151 66.7222L88.0727 70.3695C90.4642 71.4464 92.86 72.2375 95.0426 72.9599L96.2993 69.1624ZM111.35 93.3601C112.496 84.7425 111.316 79.2655 108.174 75.5846C105.139 72.0306 100.557 70.5716 96.2993 69.1624L95.0426 72.9599C99.5773 74.4606 102.959 75.6369 105.132 78.1819C107.196 80.6001 108.468 84.6858 107.385 92.8328L111.35 93.3601ZM113.496 135.243C113.248 116.618 112.168 100.406 111.356 92.8819L107.379 93.3111C108.175 100.683 109.25 116.766 109.497 135.296L113.496 135.243ZM120.773 165.458C120.773 148.89 115.831 137.793 113.109 134.086L109.885 136.454C112.013 139.352 116.773 149.577 116.773 165.458H120.773ZM120.773 193.015V165.458H116.773V193.015H120.773ZM122.112 198.721L120.724 192.574L116.822 193.455L118.21 199.602L122.112 198.721ZM121.622 206.901C122.551 205.099 122.597 202.939 122.502 201.467C122.452 200.69 122.356 200.009 122.271 199.521C122.229 199.276 122.189 199.076 122.159 198.934C122.144 198.863 122.132 198.806 122.122 198.765C122.117 198.744 122.113 198.727 122.11 198.714C122.109 198.708 122.108 198.703 122.107 198.698C122.106 198.696 122.106 198.694 122.105 198.693C122.105 198.692 122.105 198.691 122.105 198.69C122.105 198.69 122.104 198.689 122.104 198.689C122.104 198.689 122.104 198.688 120.161 199.162C118.218 199.635 118.218 199.634 118.218 199.634C118.218 199.634 118.217 199.633 118.217 199.633C118.217 199.633 118.217 199.632 118.217 199.632C118.217 199.631 118.217 199.631 118.217 199.631C118.217 199.631 118.217 199.631 118.217 199.633C118.218 199.636 118.22 199.644 118.222 199.654C118.227 199.676 118.235 199.712 118.246 199.761C118.267 199.86 118.297 200.01 118.33 200.201C118.396 200.586 118.472 201.122 118.511 201.724C118.594 203.013 118.482 204.264 118.067 205.068L121.622 206.901ZM108.246 225.37C109.952 226.413 109.952 226.413 109.952 226.413C109.953 226.413 109.953 226.413 109.953 226.413C109.953 226.412 109.954 226.411 109.954 226.41C109.955 226.408 109.957 226.405 109.96 226.401C109.965 226.393 109.972 226.381 109.982 226.365C110.001 226.333 110.03 226.286 110.068 226.224C110.144 226.1 110.255 225.918 110.396 225.686C110.68 225.222 111.086 224.555 111.578 223.748C112.561 222.133 113.886 219.952 115.253 217.689C117.96 213.21 120.911 208.281 121.622 206.901L118.067 205.068C117.435 206.293 114.587 211.058 111.83 215.62C110.465 217.878 109.143 220.055 108.161 221.668C107.67 222.474 107.265 223.139 106.982 223.603C106.84 223.834 106.73 224.016 106.654 224.139C106.617 224.201 106.588 224.248 106.569 224.28C106.559 224.295 106.552 224.307 106.547 224.315C106.544 224.319 106.542 224.322 106.541 224.324C106.541 224.325 106.54 224.326 106.54 224.327C106.54 224.327 106.539 224.327 106.539 224.327C106.539 224.327 106.539 224.327 108.246 225.37ZM106.471 220.268C105.59 221.963 105.187 223.468 105.423 224.761C105.689 226.226 106.744 227.163 107.942 227.347L108.55 223.394C108.777 223.429 108.983 223.53 109.14 223.684C109.307 223.849 109.351 224.007 109.358 224.045C109.359 224.048 109.292 223.514 110.02 222.113L106.471 220.268ZM102.485 222.173C103.568 223.437 105.151 223.621 106.158 223.6C107.241 223.577 108.278 223.311 108.939 223.067L107.553 219.314C107.208 219.442 106.616 219.589 106.074 219.6C105.457 219.613 105.421 219.452 105.522 219.57L102.485 222.173ZM106.431 212.305C106.021 213.191 103.517 217.667 102.262 219.887L105.744 221.856C106.939 219.743 109.562 215.062 110.061 213.984L106.431 212.305ZM108.584 207.379C107.871 207.16 107.65 206.6 107.625 206.528C107.594 206.441 107.62 206.47 107.626 206.701C107.636 207.138 107.564 207.813 107.415 208.627C107.113 210.282 106.611 211.915 106.431 212.305L110.061 213.984C110.449 213.145 111.024 211.129 111.35 209.347C111.515 208.442 111.645 207.452 111.625 206.607C111.615 206.197 111.569 205.679 111.392 205.183C111.22 204.703 110.78 203.87 109.76 203.556L108.584 207.379ZM108.489 211.843C109.266 209.745 110.451 207.332 110.942 206.399L107.402 204.536C106.87 205.548 105.598 208.13 104.738 210.454L108.489 211.843ZM108.364 212.181C108.405 212.069 108.447 211.956 108.489 211.843L104.738 210.454C104.695 210.57 104.652 210.685 104.611 210.797L108.364 212.181ZM102.655 217.957C104.458 217.88 105.746 217.074 106.651 215.836C107.424 214.778 107.922 213.38 108.364 212.181L104.611 210.797C104.101 212.18 103.793 212.968 103.422 213.475C103.183 213.802 102.988 213.939 102.485 213.96L102.655 217.957ZM101.032 212.563C100.998 213.569 100.745 214.955 100.618 215.525L104.523 216.392C104.669 215.734 104.983 214.07 105.03 212.701L101.032 212.563ZM106.278 194.587C105.044 195.671 104.2 197.38 103.592 199.023C102.958 200.734 102.473 202.683 102.106 204.526C101.374 208.201 101.062 211.703 101.032 212.563L105.03 212.701C105.051 212.078 105.335 208.792 106.029 205.308C106.375 203.572 106.811 201.849 107.343 200.411C107.9 198.906 108.464 197.991 108.919 197.591L106.278 194.587ZM106.769 188.325C107.001 189.929 107.188 191.274 107.116 192.427C107.047 193.53 106.758 194.165 106.278 194.587L108.919 197.591C110.493 196.208 111.003 194.37 111.108 192.675C111.21 191.03 110.945 189.252 110.728 187.752L106.769 188.325ZM106.409 185.283C106.476 186.304 106.63 187.36 106.769 188.325L110.728 187.752C110.584 186.755 110.455 185.858 110.4 185.019L106.409 185.283ZM96.3548 141.456C95.9458 144.024 96.1929 147.444 96.7682 151.139C97.351 154.881 98.3021 159.09 99.4134 163.319C101.636 171.777 104.534 180.439 106.528 185.844L110.281 184.459C108.321 179.146 105.465 170.609 103.282 162.302C102.19 158.147 101.275 154.082 100.721 150.523C100.159 146.917 99.9986 144.009 100.305 142.085L96.3548 141.456ZM91.4496 122.44C92.202 126.233 93.0534 130.526 93.911 134.209C94.3398 136.05 94.7761 137.764 95.2089 139.202C95.6287 140.598 96.0875 141.881 96.5949 142.766L100.065 140.776C99.8026 140.318 99.4503 139.416 99.0392 138.05C98.6411 136.727 98.2267 135.104 97.8068 133.301C96.967 129.696 96.1288 125.471 95.3732 121.662L91.4496 122.44ZM91.6092 113.528C90.6121 113.906 89.8573 113.363 89.6383 113.164C89.4186 112.964 89.3229 112.774 89.3214 112.772C89.2982 112.729 89.3286 112.779 89.403 113.01C89.5397 113.435 89.7166 114.123 89.9305 115.061C90.3541 116.918 90.871 119.523 91.4496 122.44L95.3732 121.662C94.7992 118.768 94.2696 116.098 93.8304 114.172C93.6129 113.218 93.4043 112.387 93.211 111.786C93.1205 111.504 92.9998 111.165 92.8406 110.87C92.7712 110.742 92.6113 110.461 92.3313 110.206C92.0521 109.952 91.2409 109.39 90.1915 109.788L91.6092 113.528ZM91.8174 138.811C91.9303 131.883 92.0396 125.183 92.2009 120.183C92.2817 117.679 92.3746 115.632 92.485 114.207C92.5409 113.486 92.5976 112.973 92.6507 112.655C92.6789 112.486 92.6946 112.445 92.6839 112.477C92.68 112.489 92.6446 112.6 92.557 112.746C92.504 112.834 92.2288 113.294 91.6092 113.528L90.1915 109.788C89.5317 110.038 89.217 110.538 89.1254 110.691C88.9992 110.901 88.9259 111.101 88.8851 111.225C88.8003 111.482 88.7451 111.758 88.7054 111.996C88.6226 112.492 88.5552 113.146 88.497 113.898C88.3792 115.417 88.2841 117.539 88.203 120.054C88.0404 125.093 87.9307 131.83 87.8179 138.746L91.8174 138.811ZM91.4155 158.619C91.5895 152.79 91.7052 145.691 91.8174 138.811L87.8179 138.746C87.7056 145.634 87.5903 152.704 87.4173 158.5L91.4155 158.619ZM93.8705 174.969C93.1594 173.106 92.498 171.366 92.0301 168.939C91.5608 166.504 91.2755 163.311 91.4155 158.619L87.4173 158.5C87.2708 163.406 87.5643 166.904 88.1024 169.696C88.642 172.495 89.4166 174.517 90.1335 176.395L93.8705 174.969ZM96.5207 188.005C96.3332 181.443 95.0861 178.154 93.8705 174.969L90.1335 176.395C91.2699 179.372 92.3529 182.187 92.5224 188.119L96.5207 188.005ZM95.439 232.68C96.1784 217.094 96.9112 201.671 96.5207 188.005L92.5224 188.119C92.9076 201.603 92.1848 216.864 91.4435 232.49L95.439 232.68ZM94.8512 245.516C95.0329 241.241 95.2363 236.953 95.439 232.68L91.4435 232.49C91.2409 236.762 91.037 241.059 90.8548 245.346L94.8512 245.516ZM94.2494 270.229C94.2432 267.781 94.2236 260.287 94.8512 245.516L90.8548 245.346C90.2242 260.187 90.2431 267.742 90.2495 270.239L94.2494 270.229ZM94.2504 270.733C94.2504 270.595 94.2499 270.426 94.2494 270.229L90.2495 270.239C90.25 270.438 90.2504 270.601 90.2504 270.733H94.2504ZM94.201 321.319C99.8684 296.28 96.5681 277.392 94.1485 270.103L90.3522 271.363C92.5403 277.955 95.8077 296.101 90.2997 320.436L94.201 321.319ZM89.5438 347.079C89.4245 346.045 89.5028 344.367 89.7705 342.193C90.033 340.063 90.4584 337.597 90.9636 335.058C91.9738 329.98 93.2839 324.703 94.1805 321.402L90.3203 320.353C89.4054 323.722 88.0724 329.091 87.0405 334.277C86.5247 336.87 86.0794 339.44 85.8005 341.704C85.5268 343.927 85.3931 346.003 85.5702 347.538L89.5438 347.079ZM94.2226 376.866C92.9006 369.016 90.1292 352.152 89.5438 347.079L85.5702 347.538C86.1706 352.741 88.9653 369.735 90.2782 377.53L94.2226 376.866ZM84.2057 392.534C87.22 392.373 89.6059 391.66 91.4138 390.459C93.248 389.241 94.3617 387.603 94.9363 385.839C96.0452 382.436 95.1218 378.7 94.0735 376.376L90.4272 378.02C91.2727 379.895 91.8067 382.533 91.133 384.6C90.8163 385.573 90.2287 386.445 89.201 387.127C88.1471 387.827 86.5107 388.405 83.9917 388.54L84.2057 392.534ZM70.8044 376.679C69.8593 380.197 69.7344 383.115 70.3289 385.502C70.9352 387.936 72.263 389.7 73.9709 390.88C77.2514 393.145 81.6388 393.077 84.4969 392.497L83.7006 388.577C81.2889 389.067 78.2164 388.95 76.2436 387.588C75.3249 386.954 74.5777 386.01 74.2103 384.535C73.8311 383.012 73.8339 380.819 74.6674 377.717L70.8044 376.679ZM74.2352 344.748C75.8674 352.675 75.2296 360.207 70.8044 376.679L74.6674 377.717C79.1348 361.088 79.9791 352.811 78.153 343.941L74.2352 344.748ZM72.8316 338.566C73.4469 341.2 73.9368 343.298 74.2352 344.748L78.153 343.941C77.8412 342.427 77.3363 340.266 76.7268 337.656L72.8316 338.566ZM64.5604 285.06C64.5604 303.2 69.9871 326.388 72.8316 338.566L76.7268 337.656C73.8557 325.365 68.5604 302.651 68.5604 285.06H64.5604ZM64.8476 277.856C64.7013 279.501 64.5604 281.105 64.5604 285.06H68.5604C68.5604 281.245 68.694 279.761 68.8319 278.21L64.8476 277.856ZM65.15 269.753C65.15 274.478 64.9952 276.195 64.8476 277.856L68.8319 278.21C68.9889 276.443 69.15 274.608 69.15 269.753H65.15ZM59.3829 202.26C59.4041 202.475 60.8477 217.086 62.2859 232.794C63.7306 248.573 65.15 265.259 65.15 269.753H69.15C69.15 265.024 67.7023 248.081 66.2693 232.429C64.8298 216.707 63.385 202.084 63.3635 201.867L59.3829 202.26ZM59.3829 201.867C59.3618 202.081 57.917 216.703 56.4774 232.426C55.0443 248.079 53.5965 265.023 53.5965 269.753H57.5965C57.5965 265.259 59.016 248.571 60.4608 232.791C61.899 217.082 63.3427 202.471 63.3635 202.26L59.3829 201.867ZM53.5965 269.753C53.5965 274.608 53.7575 276.443 53.9146 278.21L57.8988 277.856C57.7512 276.195 57.5965 274.478 57.5965 269.753H53.5965ZM53.9146 278.21C54.0524 279.761 54.1861 281.245 54.1861 285.06H58.1861C58.1861 281.105 58.0451 279.501 57.8988 277.856L53.9146 278.21ZM54.1861 285.06C54.1861 302.651 48.8907 325.365 46.0197 337.656L49.9148 338.566C52.7594 326.388 58.1861 303.2 58.1861 285.06H54.1861ZM46.0197 337.656C45.4102 340.266 44.9052 342.427 44.5934 343.941L48.5112 344.748C48.8097 343.298 49.2996 341.2 49.9148 338.566L46.0197 337.656ZM44.5934 343.941C42.7673 352.811 43.6116 361.088 48.0791 377.717L51.9421 376.679C47.5168 360.207 46.879 352.675 48.5112 344.748L44.5934 343.941ZM48.0791 377.717C48.9126 380.819 48.9153 383.012 48.5361 384.535C48.1687 386.01 47.4216 386.954 46.5028 387.588C44.5301 388.95 41.4575 389.067 39.0458 388.577L38.2496 392.497C41.1076 393.077 45.495 393.145 48.7755 390.88C50.4835 389.7 51.8113 387.936 52.4175 385.502C53.012 383.115 52.8871 380.197 51.9421 376.679L48.0791 377.717ZM38.7547 388.54C36.2358 388.405 34.5993 387.827 33.5454 387.127C32.5178 386.445 31.9302 385.573 31.6134 384.6C30.9397 382.533 31.4737 379.895 32.3192 378.02L28.6729 376.376C27.6246 378.7 26.7012 382.436 27.8102 385.839C28.3847 387.603 29.4984 389.241 31.3326 390.459C33.1405 391.66 35.5264 392.373 38.5407 392.534L38.7547 388.54ZM32.4683 377.53C33.7811 369.735 36.5759 352.741 37.1762 347.538L33.2026 347.079C32.6173 352.152 29.8459 369.016 28.5238 376.866L32.4683 377.53ZM37.1762 347.538C37.3533 346.003 37.2196 343.927 36.9459 341.704C36.667 339.44 36.2217 336.87 35.7059 334.277C34.674 329.091 33.341 323.722 32.4261 320.353L28.566 321.402C29.4626 324.703 30.7727 329.98 31.7828 335.058C32.288 337.597 32.7135 340.063 32.9759 342.193C33.2436 344.367 33.3219 346.045 33.2026 347.079L37.1762 347.538ZM32.4467 320.436C26.9388 296.101 30.2062 277.955 32.3942 271.363L28.5979 270.103C26.1783 277.392 22.878 296.28 28.5454 321.319L32.4467 320.436ZM32.4961 270.733C32.4961 270.601 32.4965 270.438 32.497 270.239L28.497 270.229C28.4965 270.426 28.4961 270.595 28.4961 270.733H32.4961ZM32.497 270.239C32.5034 267.742 32.5222 260.187 31.8916 245.346L27.8952 245.516C28.5229 260.287 28.5033 267.781 28.497 270.229L32.497 270.239ZM31.8916 245.346C31.7094 241.059 31.5056 236.762 31.3029 232.49L27.3074 232.68C27.5101 236.953 27.7135 241.241 27.8952 245.516L31.8916 245.346ZM31.3029 232.49C30.5617 216.865 29.8388 201.603 30.2241 188.119L26.2257 188.005C25.8353 201.671 26.568 217.094 27.3074 232.68L31.3029 232.49ZM30.2241 188.119C30.3936 182.188 31.4765 179.372 32.6129 176.395L28.8759 174.969C27.6603 178.154 26.4132 181.443 26.2257 188.005L30.2241 188.119ZM32.6129 176.395C33.3298 174.517 34.1045 172.495 34.644 169.696C35.1821 166.904 35.4756 163.407 35.3292 158.5L31.3309 158.619C31.471 163.311 31.1857 166.504 30.7163 168.939C30.2484 171.366 29.587 173.106 28.8759 174.969L32.6129 176.395ZM35.3292 158.5C35.1561 152.704 35.0408 145.634 34.9285 138.746L30.9291 138.811C31.0412 145.691 31.1569 152.79 31.3309 158.619L35.3292 158.5ZM34.9285 138.746C34.8158 131.83 34.706 125.093 34.5435 120.054C34.4623 117.539 34.3672 115.417 34.2495 113.898C34.1912 113.146 34.1239 112.492 34.0411 111.996C34.0013 111.758 33.9461 111.482 33.8614 111.225C33.8205 111.101 33.7473 110.901 33.6211 110.691C33.5295 110.538 33.2148 110.038 32.5549 109.788L31.1372 113.528C30.5177 113.294 30.2424 112.834 30.1894 112.746C30.1018 112.6 30.0664 112.489 30.0626 112.477C30.0519 112.445 30.0675 112.486 30.0957 112.655C30.1488 112.973 30.2056 113.486 30.2614 114.207C30.3718 115.632 30.4648 117.679 30.5455 120.183C30.7068 125.183 30.8161 131.883 30.9291 138.811L34.9285 138.746ZM32.5549 109.788C31.5056 109.39 30.6944 109.952 30.4151 110.206C30.1351 110.461 29.9752 110.742 29.9058 110.87C29.7466 111.165 29.626 111.504 29.5355 111.786C29.3422 112.387 29.1336 113.218 28.916 114.172C28.4768 116.098 27.9472 118.769 27.3733 121.662L31.2968 122.44C31.8754 119.523 32.3923 116.918 32.8159 115.061C33.0298 114.123 33.2067 113.435 33.3434 113.01C33.4179 112.779 33.4482 112.729 33.425 112.772C33.4236 112.774 33.3279 112.964 33.1082 113.164C32.8892 113.363 32.1343 113.906 31.1372 113.528L32.5549 109.788ZM27.3733 121.662C26.6176 125.471 25.7794 129.696 24.9397 133.302C24.5198 135.104 24.1053 136.727 23.7072 138.05C23.2961 139.416 22.9439 140.319 22.6816 140.776L26.1515 142.766C26.6589 141.881 27.1178 140.598 27.5376 139.203C27.9704 137.764 28.4066 136.05 28.8354 134.209C29.693 130.526 30.5444 126.233 31.2968 122.44L27.3733 121.662ZM22.4415 142.085C22.7478 144.009 22.5876 146.917 22.0259 150.523C21.4717 154.082 20.5563 158.147 19.4644 162.302C17.281 170.609 14.4258 179.146 12.4657 184.459L16.2184 185.844C18.2125 180.439 21.11 171.777 23.333 163.319C24.4443 159.09 25.3955 154.882 25.9783 151.139C26.5536 147.445 26.8007 144.024 26.3916 141.456L22.4415 142.085ZM12.3464 185.02C12.291 185.858 12.1623 186.755 12.0182 187.752L15.977 188.325C16.1164 187.36 16.2702 186.304 16.3377 185.283L12.3464 185.02ZM12.0182 187.752C11.8014 189.252 11.536 191.03 11.6383 192.675C11.7437 194.37 12.2537 196.208 13.8276 197.591L16.4681 194.587C15.9887 194.165 15.6992 193.53 15.6306 192.427C15.5589 191.274 15.745 189.929 15.977 188.325L12.0182 187.752ZM13.8276 197.591C14.2822 197.991 14.8466 198.906 15.4036 200.412C15.9354 201.849 16.3716 203.572 16.7176 205.308C17.4118 208.792 17.6951 212.078 17.7166 212.701L21.7142 212.563C21.6845 211.703 21.3728 208.201 20.6405 204.526C20.2731 202.683 19.7881 200.734 19.1549 199.023C18.5469 197.38 17.7023 195.671 16.4681 194.587L13.8276 197.591ZM17.7166 212.701C17.7638 214.07 18.0774 215.735 18.2236 216.393L22.1283 215.525C22.0016 214.955 21.7489 213.569 21.7142 212.563L17.7166 212.701ZM20.261 213.961C19.7587 213.939 19.5637 213.802 19.3246 213.475C18.9539 212.968 18.6456 212.18 18.1357 210.798L14.3827 212.181C14.8246 213.38 15.3221 214.778 16.0957 215.836C17.0008 217.074 18.2883 217.88 20.0909 217.957L20.261 213.961ZM18.1357 210.798C18.0943 210.685 18.0519 210.57 18.0087 210.454L14.2576 211.843C14.2998 211.957 14.3412 212.069 14.3827 212.181L18.1357 210.798ZM18.0087 210.454C17.1481 208.13 15.8769 205.548 15.3442 204.536L11.8046 206.399C12.2954 207.332 13.4806 209.745 14.2577 211.843L18.0087 210.454ZM12.9865 203.556C11.9668 203.87 11.5263 204.703 11.3548 205.183C11.1776 205.679 11.1313 206.197 11.1217 206.607C11.1017 207.452 11.2313 208.442 11.3965 209.347C11.7223 211.129 12.2975 213.145 12.6853 213.984L16.3159 212.305C16.1358 211.915 15.6337 210.282 15.3314 208.627C15.1825 207.813 15.1103 207.138 15.1206 206.701C15.126 206.47 15.1528 206.441 15.1217 206.528C15.0964 206.6 14.875 207.16 14.1623 207.379L12.9865 203.556ZM12.6853 213.984C13.1841 215.062 15.8075 219.743 17.0021 221.856L20.4841 219.887C19.229 217.667 16.7259 213.191 16.3159 212.305L12.6853 213.984ZM17.2246 219.57C17.3254 219.452 17.2892 219.614 16.6723 219.601C16.1306 219.589 15.538 219.442 15.1938 219.315L13.8074 223.067C14.468 223.311 15.5054 223.577 16.588 223.6C17.5956 223.621 19.1782 223.437 20.2616 222.173L17.2246 219.57ZM12.7262 222.113C13.4546 223.514 13.3878 224.048 13.3883 224.045C13.3952 224.007 13.4396 223.849 13.6068 223.684C13.7635 223.53 13.9697 223.429 14.1965 223.394L14.8047 227.347C16.0022 227.163 17.057 226.226 17.3236 224.761C17.5589 223.468 17.1567 221.963 16.2751 220.268L12.7262 222.113ZM14.5006 225.37C16.2071 224.327 16.2071 224.327 16.207 224.327C16.207 224.327 16.2068 224.327 16.2067 224.327C16.2064 224.326 16.2059 224.326 16.2053 224.325C16.2041 224.323 16.2022 224.319 16.1998 224.315C16.1949 224.307 16.1875 224.295 16.1779 224.28C16.1585 224.248 16.1297 224.201 16.092 224.139C16.0167 224.016 15.906 223.834 15.7646 223.603C15.4819 223.139 15.0764 222.474 14.5855 221.668C13.6038 220.055 12.281 217.878 10.9166 215.62C8.15951 211.058 5.31101 206.293 4.67954 205.068L1.12406 206.901C1.83574 208.282 4.78665 213.21 7.49315 217.689C8.86055 219.952 10.1857 222.133 11.1688 223.748C11.6605 224.555 12.0667 225.222 12.35 225.686C12.4917 225.918 12.6027 226.1 12.6782 226.224C12.716 226.286 12.745 226.333 12.7645 226.365C12.7742 226.381 12.7816 226.393 12.7866 226.401C12.7891 226.405 12.7909 226.408 12.7922 226.41C12.7928 226.411 12.7933 226.412 12.7936 226.413C12.7938 226.413 12.7939 226.413 12.794 226.413C12.7941 226.413 12.7941 226.413 14.5006 225.37ZM4.67954 205.068C4.26493 204.264 4.15291 203.013 4.2358 201.724C4.27458 201.122 4.3505 200.586 4.41683 200.201C4.44979 200.011 4.47983 199.86 4.50069 199.762C4.5111 199.712 4.51917 199.676 4.52411 199.654C4.52658 199.644 4.52826 199.637 4.52905 199.633C4.52945 199.631 4.52962 199.631 4.52956 199.631C4.52953 199.631 4.52944 199.632 4.52929 199.632C4.52921 199.632 4.52912 199.633 4.52902 199.633C4.52897 199.633 4.52888 199.634 4.52885 199.634C4.52875 199.634 4.52866 199.635 2.58543 199.162C0.6422 198.688 0.642093 198.689 0.641983 198.689C0.641941 198.69 0.641827 198.69 0.641743 198.69C0.641575 198.691 0.641392 198.692 0.641193 198.693C0.640795 198.694 0.640336 198.696 0.639817 198.698C0.638778 198.703 0.637499 198.708 0.635993 198.714C0.632981 198.727 0.62906 198.744 0.624336 198.765C0.614891 198.806 0.602218 198.863 0.587178 198.934C0.557132 199.076 0.517446 199.276 0.475129 199.521C0.390916 200.009 0.294084 200.69 0.244061 201.467C0.149359 202.939 0.195523 205.099 1.12406 206.901L4.67954 205.068ZM4.53631 199.602L5.92431 193.455L2.02255 192.574L0.634546 198.721L4.53631 199.602ZM5.97343 193.015V165.458H1.97343V193.015H5.97343ZM5.97343 165.458C5.97343 149.577 10.7331 139.352 12.8618 136.454L9.63784 134.086C6.91558 137.793 1.97343 148.89 1.97343 165.458H5.97343ZM13.2496 135.297C13.4967 116.766 14.5718 100.683 15.3673 93.3111L11.3904 92.8819C10.5785 100.406 9.49833 116.618 9.25 135.243L13.2496 135.297ZM15.3614 92.8328C14.2779 84.6858 15.5502 80.6001 17.6148 78.182C19.7878 75.6369 23.1692 74.4606 27.7039 72.9599L26.4471 69.1624C22.1891 70.5716 17.6073 72.0306 14.5728 75.5846C11.43 79.2655 10.2503 84.7425 11.3963 93.3601L15.3614 92.8328ZM27.7039 72.9599C29.8865 72.2375 32.2822 71.4464 34.6738 70.3695L33.0313 66.7222C30.8579 67.701 28.6556 68.4315 26.4471 69.1624L27.7039 72.9599ZM34.6738 70.3695C46.0527 65.2452 49.8923 62.806 52.387 59.9549L49.3767 57.3209C47.5367 59.4237 44.4995 61.5578 33.0313 66.7222L34.6738 70.3695ZM52.387 59.9549C53.1605 59.0709 53.5635 57.837 53.8038 56.7914C54.0606 55.6734 54.2029 54.4319 54.2741 53.2737C54.3458 52.1083 54.3485 50.9746 54.3095 50.0524C54.29 49.5919 54.2594 49.1679 54.2188 48.8087C54.1837 48.4988 54.1262 48.0878 54.0095 47.7407L50.2183 49.0162C50.188 48.9264 50.2112 48.9671 50.2441 49.2583C50.2715 49.5002 50.2963 49.8268 50.313 50.2216C50.3464 51.0099 50.3446 52.0052 50.2817 53.0283C50.2183 54.0586 50.0961 55.0652 49.9053 55.8958C49.6979 56.7987 49.4701 57.2141 49.3767 57.3209L52.387 59.9549ZM54.0095 47.7407C53.856 47.2847 53.5918 46.906 53.4061 46.6627C53.1971 46.3888 52.9514 46.114 52.7051 45.8548C52.2149 45.3391 51.5996 44.7588 51.0126 44.2044L48.266 47.1124C48.8782 47.6906 49.4058 48.1898 49.8059 48.6107C50.0047 48.8198 50.141 48.9775 50.2263 49.0894C50.3349 49.2317 50.2773 49.1917 50.2183 49.0162L54.0095 47.7407ZM51.0126 44.2044C49.976 43.2253 49.0189 42.3152 48.4268 41.5683L45.2924 44.0534C46.1026 45.0752 47.3024 46.2022 48.266 47.1124L51.0126 44.2044ZM48.4268 41.5683C47.1873 40.0051 46.0328 36.9574 45.5273 33.671L41.5738 34.2792C42.1322 37.909 43.448 41.7272 45.2924 44.0534L48.4268 41.5683ZM45.5273 33.671C45.4675 33.2825 45.383 32.806 45.2907 32.2848L41.352 32.9823C41.4472 33.52 41.5224 33.9455 41.5738 34.2793L45.5273 33.671ZM45.2907 32.2848C44.4971 27.8039 42.8756 18.4285 46.0074 10.28L42.2737 8.84491C38.6899 18.1693 40.5779 28.6114 41.352 32.9823L45.2907 32.2848ZM46.0074 10.28C46.6167 8.69456 48.088 7.30344 50.2165 6.22591C52.3225 5.15971 54.8559 4.51642 57.1762 4.30986L56.8215 0.325615C54.0819 0.569516 51.0407 1.32529 48.4098 2.65718C45.8013 3.97774 43.3734 5.98374 42.2737 8.84491L46.0074 10.28ZM54.9991 2.35113L54.9993 2.36157L58.9983 2.2739L58.9981 2.26346L54.9991 2.35113Z" fill="#5F819E" mask="url(#path-5-outside-1_491_3006)"/>
</svg>
