<svg width="124" height="393" viewBox="0 0 124 393" fill="none" xmlns="http://www.w3.org/2000/svg">
<path d="M51.5565 14.4842C52.3492 12.4454 54.0031 8.71171 56.8231 7.51831" stroke="#5F819E" stroke-width="2" stroke-linecap="round" stroke-linejoin="round"/>
<path d="M58.5096 14.4841C59.3023 12.4453 62.0812 8.60938 65.8647 8.60938" stroke="#5F819E" stroke-width="2" stroke-linecap="round" stroke-linejoin="round"/>
<path d="M65.0468 14.7447C66.2737 11.6771 69.0346 10.45 73.0225 11.2681" stroke="#5F819E" stroke-width="2" stroke-linecap="round" stroke-linejoin="round"/>
<path d="M8.67957 192.303C9.5594 179.399 12.8149 150.98 18.798 140.541L26.7663 79.8456L61.5844 93.3699M61.5844 93.3699V169.949M61.5844 93.3699L96.4026 79.8456L104.371 140.541C110.354 150.98 113.609 179.399 114.489 192.303M61.5844 169.949L39.5566 185.405L42.5766 261.809L40.8001 350.507V357.394M61.5844 169.949L83.6123 185.405L80.5923 261.809L82.3688 350.507V356.033M61.5844 59.2957V93.0187" stroke="#E0EA8A" stroke-width="2" stroke-linecap="round" stroke-linejoin="round"/>
<path d="M65.1838 58.8167C65.1838 60.6429 63.7045 62.1232 61.8796 62.1232C60.0548 62.1232 58.5754 60.6429 58.5754 58.8167C58.5754 56.9906 60.0548 55.5103 61.8796 55.5103C63.7045 55.5103 65.1838 56.9906 65.1838 58.8167Z" fill="#194B6C"/>
<path d="M65.1838 92.4055C65.1838 94.2316 63.7045 95.7119 61.8796 95.7119C60.0548 95.7119 58.5754 94.2316 58.5754 92.4055C58.5754 90.5793 60.0548 89.099 61.8796 89.099C63.7045 89.099 65.1838 90.5793 65.1838 92.4055Z" fill="#194B6C"/>
<path d="M31.2881 80.9701C31.2881 82.7962 29.8088 84.2766 27.9839 84.2766C26.159 84.2766 24.6797 82.7962 24.6797 80.9701C24.6797 79.144 26.159 77.6636 27.9839 77.6636C29.8088 77.6636 31.2881 79.144 31.2881 80.9701Z" fill="#194B6C"/>
<path d="M13.3388 192.534C13.3388 194.36 11.8594 195.84 10.0346 195.84C8.20969 195.84 6.73035 194.36 6.73035 192.534C6.73035 190.708 8.20969 189.227 10.0346 189.227C11.8594 189.227 13.3388 190.708 13.3388 192.534Z" fill="#194B6C"/>
<path d="M111.035 192.534C111.035 194.36 112.514 195.84 114.339 195.84C116.164 195.84 117.643 194.36 117.643 192.534C117.643 190.708 116.164 189.227 114.339 189.227C112.514 189.227 111.035 190.708 111.035 192.534Z" fill="#194B6C"/>
<path d="M22.1973 139.808C22.1973 141.634 20.7179 143.114 18.8931 143.114C17.0682 143.114 15.5889 141.634 15.5889 139.808C15.5889 137.982 17.0682 136.501 18.8931 136.501C20.7179 136.501 22.1973 137.982 22.1973 139.808Z" fill="#194B6C"/>
<path d="M102.174 139.808C102.174 141.634 103.654 143.114 105.478 143.114C107.303 143.114 108.783 141.634 108.783 139.808C108.783 137.982 107.303 136.501 105.478 136.501C103.654 136.501 102.174 137.982 102.174 139.808Z" fill="#194B6C"/>
<path d="M79.488 185.919C79.488 187.746 80.9673 189.226 82.7922 189.226C84.617 189.226 86.0964 187.746 86.0964 185.919C86.0964 184.093 84.617 182.613 82.7922 182.613C80.9673 182.613 79.488 184.093 79.488 185.919Z" fill="#194B6C"/>
<path d="M77.3181 273.18C77.3181 275.006 78.7975 276.486 80.6224 276.486C82.4472 276.486 83.9266 275.006 83.9266 273.18C83.9266 271.353 82.4472 269.873 80.6224 269.873C78.7975 269.873 77.3181 271.353 77.3181 273.18Z" fill="#194B6C"/>
<path d="M58.5751 170.409C58.5751 172.235 60.0544 173.716 61.8793 173.716C63.7041 173.716 65.1835 172.235 65.1835 170.409C65.1835 168.583 63.7041 167.103 61.8793 167.103C60.0544 167.103 58.5751 168.583 58.5751 170.409Z" fill="#194B6C"/>
<path d="M35.701 185.919C35.701 187.746 37.1803 189.226 39.0052 189.226C40.8301 189.226 42.3094 187.746 42.3094 185.919C42.3094 184.093 40.8301 182.613 39.0052 182.613C37.1803 182.613 35.701 184.093 35.701 185.919Z" fill="#194B6C"/>
<path d="M39.005 273.18C39.005 275.006 40.4844 276.486 42.3092 276.486C44.1341 276.486 45.6135 275.006 45.6135 273.18C45.6135 271.353 44.1341 269.873 42.3092 269.873C40.4844 269.873 39.005 271.353 39.005 273.18Z" fill="#194B6C"/>
<path d="M36.6929 356.292C36.6929 358.119 38.1722 359.599 39.9971 359.599C41.822 359.599 43.3013 358.119 43.3013 356.292C43.3013 354.466 41.822 352.986 39.9971 352.986C38.1722 352.986 36.6929 354.466 36.6929 356.292Z" fill="#194B6C"/>
<path d="M80.6222 356.292C80.6222 358.119 82.1015 359.599 83.9264 359.599C85.7512 359.599 87.2306 358.119 87.2306 356.292C87.2306 354.466 85.7512 352.986 83.9264 352.986C82.1015 352.986 80.6222 354.466 80.6222 356.292Z" fill="#194B6C"/>
<path d="M98.8956 80.9701C98.8956 82.7962 97.4163 84.2766 95.5914 84.2766C93.7665 84.2766 92.2872 82.7962 92.2872 80.9701C92.2872 79.144 93.7665 77.6636 95.5914 77.6636C97.4163 77.6636 98.8956 79.144 98.8956 80.9701Z" fill="#194B6C"/>
<path d="M37.8944 113.079C41.368 113.917 50.1798 115.09 57.6378 113.079" stroke="#5F819E" stroke-width="2" stroke-linecap="round" stroke-linejoin="round"/>
<path d="M67.1288 113.079C70.6024 113.917 79.4142 115.09 86.8721 113.079" stroke="#5F819E" stroke-width="2" stroke-linecap="round" stroke-linejoin="round"/>
<path d="M54.162 201.316C56.9712 202.154 64.0974 203.328 70.1288 201.316" stroke="#5F819E" stroke-width="2" stroke-linecap="round" stroke-linejoin="round"/>
<mask id="path-9-outside-1_491_3020" maskUnits="userSpaceOnUse" x="-0.163208" y="0.11084" width="124" height="393" fill="black">
<rect fill="white" x="-0.163208" y="0.11084" width="124" height="393"/>
<path fill-rule="evenodd" clip-rule="evenodd" d="M57.6254 2.3073C62.7344 1.37842 76.9928 3.73461 79.2327 9.56242C82.5905 18.2988 80.8357 28.2076 80.0519 32.6335C79.9581 33.163 79.8783 33.614 79.8227 33.9751C79.2907 37.4331 78.0555 40.8661 76.5136 42.8108C75.8124 43.6952 74.734 44.7138 73.7339 45.6584C72.5347 46.791 71.4481 47.8173 71.2593 48.3785C70.9131 49.4076 70.7574 56.6563 72.4913 58.6379C74.6587 61.1149 78.0971 63.4015 89.5207 68.5458C91.8032 69.5737 94.1022 70.3345 96.2977 71.0611C105.09 73.971 112.224 76.3318 109.994 93.0965C110.798 100.544 111.876 116.692 112.123 135.27C114.549 138.572 119.4 149.234 119.4 165.458V193.015L120.788 199.162C120.788 199.162 121.815 203.379 120.471 205.984C119.128 208.59 108.873 225.37 108.873 225.37C108.202 225.267 107.263 224.287 108.873 221.19C107.868 221.562 105.613 222.018 104.63 220.871C105.855 218.705 108.418 214.127 108.873 213.144C109.441 211.916 111.027 205.846 109.799 205.468C109.287 206.44 108.059 208.937 107.24 211.148C107.197 211.263 107.155 211.377 107.114 211.489C106.162 214.071 105.502 215.861 103.197 215.959C103.334 215.345 103.617 213.82 103.658 212.632C103.709 211.148 104.848 199.057 108.225 196.089C110.279 194.285 109.824 191.142 109.376 188.038C109.234 187.058 109.093 186.081 109.031 185.151C105.077 174.434 97.5259 150.753 98.9567 141.771C97.4173 139.086 95.5462 129.653 94.0382 122.051C92.8856 116.241 91.9452 111.5 91.5271 111.658C90.8826 111.902 90.6701 124.935 90.4444 138.779C90.3322 145.663 90.2167 152.747 90.0432 158.56C89.7566 168.157 91.2008 171.941 92.6288 175.682C93.8048 178.763 94.9698 181.815 95.1483 188.062C95.5362 201.637 94.8084 216.979 94.068 232.585C93.8654 236.858 93.6617 241.15 93.4798 245.431C92.8507 260.237 92.8699 267.762 92.8762 270.234C92.8767 270.432 92.8771 270.598 92.8771 270.733C95.181 277.673 98.4648 296.19 92.8771 320.877C91.0657 327.547 87.5909 342.171 88.1838 347.309C88.7766 352.447 91.5597 369.376 92.8771 377.198C94.771 381.397 95.792 389.944 84.7255 390.537C79.4558 391.607 69.8056 390.438 73.3626 377.198C77.809 360.648 78.55 352.743 76.8209 344.344C76.5158 342.862 76.0183 340.733 75.406 338.111C72.5481 325.876 67.1871 302.926 67.1871 285.06C67.1871 281.175 67.3244 279.631 67.4665 278.033C67.6189 276.319 67.7767 274.543 67.7767 269.753C67.7767 260.53 62.0427 202.496 62 202.064C61.958 202.489 56.2232 260.53 56.2232 269.753C56.2232 274.543 56.3811 276.319 56.5335 278.033C56.6755 279.631 56.8128 281.175 56.8128 285.06C56.8128 302.926 51.4518 325.876 48.594 338.111C47.9816 340.733 47.4842 342.862 47.1791 344.344C45.4499 352.743 46.191 360.648 50.6373 377.198C54.1944 390.438 44.5442 391.607 39.2745 390.537C28.208 389.944 29.229 381.397 31.1228 377.198C32.4403 369.376 35.2233 352.447 35.8162 347.309C36.409 342.171 32.9343 327.547 31.1228 320.877C25.5352 296.19 28.819 277.673 31.1228 270.733C31.1228 270.598 31.1233 270.432 31.1238 270.234C31.1301 267.762 31.1493 260.237 30.5202 245.431C30.3382 241.15 30.1346 236.858 29.9319 232.585C29.1916 216.979 28.4638 201.637 28.8517 188.062C29.0302 181.815 30.1952 178.763 31.3712 175.682C32.7992 171.941 34.2433 168.158 33.9568 158.56C33.7833 152.747 33.6678 145.662 33.5556 138.779C33.3299 124.935 33.1174 111.902 32.4728 111.658C32.0548 111.5 31.1143 116.241 29.9618 122.051C28.4538 129.653 26.5826 139.086 25.0433 141.771C26.4741 150.753 18.9231 174.434 14.9688 185.151C14.9074 186.081 14.7661 187.058 14.6244 188.039C14.1756 191.143 13.7213 194.285 15.7746 196.089C19.1522 199.057 20.291 211.148 20.3422 212.632C20.3831 213.82 20.6663 215.345 20.8027 215.959C18.4978 215.861 17.8377 214.071 16.8859 211.49C16.8445 211.377 16.8026 211.263 16.7599 211.148C15.9411 208.938 14.7129 206.44 14.2012 205.468C12.973 205.846 14.5594 211.916 15.1274 213.144C15.5818 214.127 18.145 218.705 19.3698 220.871C18.3873 222.018 16.1321 221.562 15.1274 221.191C16.7374 224.287 15.7982 225.267 15.1274 225.37C15.1274 225.37 4.87172 208.59 3.52857 205.984C2.18542 203.379 3.2122 199.162 3.2122 199.162L4.6002 193.015V165.458C4.6002 149.234 9.45113 138.573 11.8766 135.27C12.1243 116.692 13.2019 100.544 14.0057 93.0965C11.7761 76.3318 18.9095 73.9711 27.7023 71.0611C29.8978 70.3345 32.1968 69.5737 34.4793 68.5458C45.9029 63.4015 49.3413 61.1149 51.5086 58.6379C53.2425 56.6563 53.0869 49.4076 52.7406 48.3785C52.5519 47.8173 51.4652 46.791 50.2661 45.6584C49.2659 44.7138 48.1875 43.6952 47.4864 42.8108C45.9444 40.8661 44.7093 37.4332 44.1773 33.9751C44.1217 33.614 44.0419 33.163 43.9481 32.6336C43.1643 28.2076 41.4095 18.2989 44.7673 9.56243C46.4763 5.11587 52.5658 2.7682 57.6256 2.31774L57.6254 2.3073Z"/>
</mask>
<path d="M79.2327 9.56242L77.3658 10.2799V10.2799L79.2327 9.56242ZM57.6254 2.3073L57.2676 0.339553C56.3003 0.515417 55.6043 1.36822 55.6258 2.35113L57.6254 2.3073ZM80.0519 32.6335L82.0212 32.9823V32.9823L80.0519 32.6335ZM79.8227 33.9751L81.7994 34.2792V34.2792L79.8227 33.9751ZM76.5136 42.8108L74.9464 41.5683V41.5683L76.5136 42.8108ZM73.7339 45.6584L75.1072 47.1124V47.1124L73.7339 45.6584ZM71.2593 48.3785L73.1549 49.0162V49.0162L71.2593 48.3785ZM72.4913 58.6379L70.9862 59.9549L72.4913 58.6379ZM89.5207 68.5458L88.6995 70.3695L89.5207 68.5458ZM96.2977 71.0611L95.6693 72.9599L96.2977 71.0611ZM109.994 93.0965L108.012 92.8328C107.991 92.9914 107.989 93.152 108.006 93.3111L109.994 93.0965ZM112.123 135.27L110.124 135.296C110.129 135.713 110.265 136.118 110.511 136.454L112.123 135.27ZM119.4 193.015H117.4C117.4 193.163 117.416 193.311 117.449 193.455L119.4 193.015ZM120.788 199.162L118.837 199.602C118.839 199.613 118.842 199.624 118.845 199.635L120.788 199.162ZM108.873 225.37L108.568 227.347C109.366 227.47 110.158 227.102 110.579 226.413L108.873 225.37ZM108.873 221.19L110.647 222.113C111.028 221.38 110.919 220.488 110.373 219.868C109.826 219.248 108.955 219.028 108.179 219.314L108.873 221.19ZM104.63 220.871L102.889 219.887C102.475 220.62 102.564 221.534 103.112 222.173L104.63 220.871ZM108.873 213.144L110.688 213.984L108.873 213.144ZM109.799 205.468L110.387 203.556C109.467 203.273 108.477 203.685 108.029 204.536L109.799 205.468ZM107.24 211.148L109.116 211.843L109.116 211.843L107.24 211.148ZM107.114 211.489L105.238 210.797L105.238 210.797L107.114 211.489ZM103.197 215.959L101.245 215.525C101.11 216.132 101.265 216.767 101.664 217.243C102.063 217.719 102.661 217.983 103.282 217.957L103.197 215.959ZM103.658 212.632L105.657 212.701L103.658 212.632ZM108.225 196.089L106.905 194.587L108.225 196.089ZM109.376 188.038L111.355 187.752V187.752L109.376 188.038ZM109.031 185.151L111.027 185.019C111.014 184.828 110.974 184.639 110.908 184.459L109.031 185.151ZM98.9567 141.771L100.932 142.085C101.004 141.634 100.919 141.172 100.692 140.776L98.9567 141.771ZM94.0382 122.051L92.0764 122.44L94.0382 122.051ZM91.5271 111.658L92.236 113.528L92.236 113.528L91.5271 111.658ZM90.4444 138.779L88.4447 138.746L90.4444 138.779ZM90.0432 158.56L92.0423 158.619L90.0432 158.56ZM92.6288 175.682L90.7603 176.395V176.395L92.6288 175.682ZM95.1483 188.062L97.1475 188.005L95.1483 188.062ZM94.068 232.585L96.0658 232.68L94.068 232.585ZM93.4798 245.431L95.478 245.516L93.4798 245.431ZM92.8762 270.234L94.8762 270.229L92.8762 270.234ZM92.8771 270.733H90.8771C90.8771 270.947 90.9115 271.159 90.979 271.363L92.8771 270.733ZM92.8771 320.877L94.8072 321.402C94.8147 321.374 94.8215 321.347 94.8278 321.319L92.8771 320.877ZM88.1838 347.309L90.1706 347.079L88.1838 347.309ZM92.8771 377.198L90.9049 377.53C90.9334 377.699 90.9835 377.864 91.054 378.02L92.8771 377.198ZM84.7255 390.537L84.6185 388.54C84.5207 388.545 84.4234 388.557 84.3274 388.577L84.7255 390.537ZM73.3626 377.198L75.2941 377.717L73.3626 377.198ZM76.8209 344.344L78.7798 343.941L76.8209 344.344ZM75.406 338.111L73.4584 338.566L75.406 338.111ZM67.4665 278.033L65.4744 277.856L67.4665 278.033ZM62 202.064L63.9903 201.867C63.8891 200.844 63.0284 200.064 62 200.064C60.9716 200.064 60.1108 200.844 60.0097 201.867L62 202.064ZM56.5335 278.033L58.5256 277.856L56.5335 278.033ZM48.594 338.111L50.5416 338.566L48.594 338.111ZM47.1791 344.344L45.2202 343.941L47.1791 344.344ZM50.6373 377.198L52.5689 376.679L50.6373 377.198ZM39.2745 390.537L39.6726 388.577C39.5766 388.557 39.4793 388.545 39.3815 388.54L39.2745 390.537ZM31.1228 377.198L32.946 378.02C33.0165 377.864 33.0666 377.699 33.0951 377.53L31.1228 377.198ZM31.1228 320.877L29.1722 321.319C29.1784 321.347 29.1853 321.374 29.1928 321.402L31.1228 320.877ZM31.1228 270.733L33.021 271.363C33.0884 271.159 33.1228 270.947 33.1228 270.733H31.1228ZM31.1238 270.234L33.1238 270.239V270.239L31.1238 270.234ZM30.5202 245.431L32.5184 245.346L30.5202 245.431ZM29.9319 232.585L27.9342 232.68L29.9319 232.585ZM28.8517 188.062L26.8525 188.005L28.8517 188.062ZM31.3712 175.682L29.5027 174.969L31.3712 175.682ZM33.9568 158.56L35.9559 158.5L33.9568 158.56ZM33.5556 138.779L31.5558 138.811L33.5556 138.779ZM32.4728 111.658L33.1817 109.788H33.1817L32.4728 111.658ZM29.9618 122.051L31.9236 122.44L29.9618 122.051ZM25.0433 141.771L23.3083 140.776C23.0811 141.172 22.9964 141.634 23.0682 142.085L25.0433 141.771ZM14.9688 185.151L13.0924 184.459C13.026 184.639 12.9858 184.828 12.9732 185.02L14.9688 185.151ZM14.6244 188.039L16.6038 188.325H16.6038L14.6244 188.039ZM15.7746 196.089L17.0949 194.587H17.0949L15.7746 196.089ZM20.8027 215.959L20.7177 217.957C21.3387 217.983 21.9367 217.72 22.3359 217.243C22.735 216.767 22.89 216.132 22.7551 215.525L20.8027 215.959ZM16.8859 211.49L18.7624 210.798L18.7624 210.798L16.8859 211.49ZM16.7599 211.148L18.6354 210.454L18.6354 210.454L16.7599 211.148ZM14.2012 205.468L15.971 204.536C15.523 203.685 14.5326 203.273 13.6133 203.556L14.2012 205.468ZM15.1274 213.144L16.9427 212.305H16.9427L15.1274 213.144ZM19.3698 220.871L20.8884 222.173C21.4362 221.534 21.5252 220.62 21.1109 219.887L19.3698 220.871ZM15.1274 221.191L15.8206 219.315C15.0454 219.028 14.1738 219.248 13.6272 219.868C13.0807 220.488 12.9717 221.38 13.353 222.113L15.1274 221.191ZM15.1274 225.37L13.4209 226.413C13.8415 227.102 14.6343 227.47 15.4315 227.347L15.1274 225.37ZM3.52857 205.984L1.75083 206.901H1.75083L3.52857 205.984ZM3.2122 199.162L5.15543 199.635C5.15807 199.624 5.16062 199.613 5.16308 199.602L3.2122 199.162ZM4.6002 193.015L6.55108 193.455C6.58372 193.311 6.6002 193.163 6.6002 193.015H4.6002ZM11.8766 135.27L13.4886 136.454C13.7353 136.118 13.8709 135.713 13.8764 135.297L11.8766 135.27ZM14.0057 93.0965L15.9941 93.3111C16.0113 93.152 16.0093 92.9914 15.9882 92.8328L14.0057 93.0965ZM27.7023 71.0611L28.3306 72.9599H28.3306L27.7023 71.0611ZM34.4793 68.5458L35.3005 70.3695L34.4793 68.5458ZM51.5086 58.6379L53.0138 59.9549L51.5086 58.6379ZM52.7406 48.3785L50.845 49.0162L50.845 49.0162L52.7406 48.3785ZM50.2661 45.6584L48.8928 47.1124H48.8928L50.2661 45.6584ZM47.4864 42.8108L49.0535 41.5683L47.4864 42.8108ZM44.1773 33.9751L46.154 33.671V33.671L44.1773 33.9751ZM43.9481 32.6336L41.9787 32.9823V32.9823L43.9481 32.6336ZM44.7673 9.56243L46.6342 10.28L44.7673 9.56243ZM57.6256 2.31774L57.8029 4.30986C58.8515 4.21651 59.6482 3.32634 59.6251 2.2739L57.6256 2.31774ZM81.0995 8.8449C80.3072 6.7834 78.5549 5.24782 76.6495 4.11891C74.7101 2.96983 72.372 2.09885 70.0226 1.46926C65.3862 0.226798 60.223 -0.197772 57.2676 0.339553L57.9831 4.27504C60.1367 3.88349 64.6572 4.17257 68.9873 5.33294C71.1211 5.90477 73.0869 6.65749 74.6106 7.56024C76.1683 8.48316 77.0382 9.42753 77.3658 10.2799L81.0995 8.8449ZM82.0212 32.9823C82.7953 28.6113 84.6833 18.1693 81.0995 8.8449L77.3658 10.2799C80.4976 18.4284 78.8761 27.8038 78.0825 32.2848L82.0212 32.9823ZM81.7994 34.2792C81.8508 33.9455 81.926 33.52 82.0212 32.9823L78.0825 32.2848C77.9902 32.806 77.9057 33.2824 77.8459 33.671L81.7994 34.2792ZM78.0808 44.0534C79.9252 41.7272 81.241 37.909 81.7994 34.2792L77.8459 33.671C77.3404 36.9573 76.1859 40.0051 74.9464 41.5683L78.0808 44.0534ZM75.1072 47.1124C76.0708 46.2022 77.2706 45.0752 78.0808 44.0534L74.9464 41.5683C74.3543 42.3152 73.3972 43.2253 72.3606 44.2044L75.1072 47.1124ZM73.1549 49.0162C73.0959 49.1917 73.0383 49.2316 73.1469 49.0893C73.2322 48.9775 73.3685 48.8198 73.5673 48.6107C73.9674 48.1897 74.495 47.6906 75.1072 47.1124L72.3606 44.2044C71.7736 44.7588 71.1583 45.3391 70.6681 45.8548C70.4218 46.114 70.1761 46.3888 69.9671 46.6626C69.7814 46.906 69.5172 47.2847 69.3637 47.7407L73.1549 49.0162ZM73.9965 57.3209C73.9031 57.2141 73.6753 56.7987 73.4679 55.8958C73.2771 55.0651 73.1549 54.0586 73.0915 53.0283C73.0286 52.0052 73.0268 51.0099 73.0602 50.2215C73.0769 49.8268 73.1017 49.5002 73.1291 49.2583C73.162 48.9671 73.1852 48.9264 73.1549 49.0162L69.3637 47.7407C69.247 48.0878 69.1895 48.4987 69.1544 48.8086C69.1138 49.1679 69.0832 49.5919 69.0637 50.0524C69.0247 50.9745 69.0274 52.1083 69.0991 53.2737C69.1703 54.4319 69.3126 55.6734 69.5694 56.7914C69.8097 57.837 70.2127 59.0708 70.9862 59.9549L73.9965 57.3209ZM90.3419 66.7222C78.8737 61.5578 75.8365 59.4237 73.9965 57.3209L70.9862 59.9549C73.4809 62.806 77.3205 65.2452 88.6995 70.3695L90.3419 66.7222ZM96.9261 69.1624C94.7176 68.4315 92.5154 67.701 90.3419 66.7222L88.6995 70.3695C91.091 71.4464 93.4867 72.2375 95.6693 72.9599L96.9261 69.1624ZM111.977 93.3601C113.123 84.7425 111.943 79.2655 108.8 75.5846C105.766 72.0306 101.184 70.5716 96.9261 69.1624L95.6693 72.9599C100.204 74.4606 103.585 75.6369 105.758 78.1819C107.823 80.6001 109.095 84.6858 108.012 92.8328L111.977 93.3601ZM114.123 135.243C113.875 116.618 112.795 100.406 111.983 92.8819L108.006 93.3111C108.801 100.683 109.876 116.766 110.124 135.296L114.123 135.243ZM121.4 165.458C121.4 148.89 116.458 137.793 113.735 134.086L110.511 136.454C112.64 139.352 117.4 149.577 117.4 165.458H121.4ZM121.4 193.015V165.458H117.4V193.015H121.4ZM122.739 198.721L121.351 192.574L117.449 193.455L118.837 199.602L122.739 198.721ZM122.249 206.901C123.178 205.099 123.224 202.939 123.129 201.467C123.079 200.69 122.982 200.009 122.898 199.521C122.856 199.276 122.816 199.076 122.786 198.934C122.771 198.863 122.758 198.806 122.749 198.765C122.744 198.744 122.74 198.727 122.737 198.714C122.736 198.708 122.734 198.703 122.733 198.698C122.733 198.696 122.732 198.694 122.732 198.693C122.732 198.692 122.732 198.691 122.731 198.69C122.731 198.69 122.731 198.689 122.731 198.689C122.731 198.689 122.731 198.688 120.788 199.162C118.845 199.635 118.844 199.634 118.844 199.634C118.844 199.634 118.844 199.633 118.844 199.633C118.844 199.633 118.844 199.632 118.844 199.632C118.844 199.631 118.844 199.631 118.844 199.631C118.844 199.631 118.844 199.631 118.844 199.633C118.845 199.636 118.847 199.644 118.849 199.654C118.854 199.676 118.862 199.712 118.873 199.761C118.893 199.86 118.923 200.01 118.956 200.201C119.023 200.586 119.099 201.122 119.137 201.724C119.22 203.013 119.108 204.264 118.694 205.068L122.249 206.901ZM108.873 225.37C110.579 226.413 110.579 226.413 110.579 226.413C110.579 226.413 110.579 226.413 110.58 226.413C110.58 226.412 110.58 226.411 110.581 226.41C110.582 226.408 110.584 226.405 110.587 226.401C110.592 226.393 110.599 226.381 110.609 226.365C110.628 226.333 110.657 226.286 110.695 226.224C110.771 226.1 110.882 225.918 111.023 225.686C111.307 225.222 111.713 224.555 112.204 223.748C113.188 222.133 114.513 219.952 115.88 217.689C118.587 213.21 121.537 208.281 122.249 206.901L118.694 205.068C118.062 206.293 115.214 211.058 112.457 215.62C111.092 217.878 109.769 220.055 108.788 221.668C108.297 222.474 107.891 223.139 107.609 223.603C107.467 223.834 107.357 224.016 107.281 224.139C107.244 224.201 107.215 224.248 107.195 224.28C107.186 224.295 107.178 224.307 107.173 224.315C107.171 224.319 107.169 224.322 107.168 224.324C107.167 224.325 107.167 224.326 107.167 224.327C107.166 224.327 107.166 224.327 107.166 224.327C107.166 224.327 107.166 224.327 108.873 225.37ZM107.098 220.268C106.217 221.963 105.814 223.468 106.05 224.761C106.316 226.226 107.371 227.163 108.568 227.347L109.177 223.394C109.404 223.429 109.61 223.53 109.766 223.684C109.934 223.849 109.978 224.007 109.985 224.045C109.985 224.048 109.919 223.514 110.647 222.113L107.098 220.268ZM103.112 222.173C104.195 223.437 105.778 223.621 106.785 223.6C107.868 223.577 108.905 223.311 109.566 223.067L108.179 219.314C107.835 219.442 107.243 219.589 106.701 219.6C106.084 219.613 106.048 219.452 106.149 219.57L103.112 222.173ZM107.057 212.305C106.647 213.191 104.144 217.667 102.889 219.887L106.371 221.856C107.566 219.743 110.189 215.062 110.688 213.984L107.057 212.305ZM109.211 207.379C108.498 207.16 108.277 206.6 108.251 206.528C108.22 206.441 108.247 206.47 108.253 206.701C108.263 207.138 108.191 207.813 108.042 208.627C107.739 210.282 107.237 211.915 107.057 212.305L110.688 213.984C111.076 213.145 111.651 211.129 111.977 209.347C112.142 208.442 112.271 207.452 112.252 206.607C112.242 206.197 112.196 205.679 112.018 205.183C111.847 204.703 111.406 203.87 110.387 203.556L109.211 207.379ZM109.116 211.843C109.893 209.745 111.078 207.332 111.569 206.399L108.029 204.536C107.496 205.548 106.225 208.13 105.365 210.454L109.116 211.843ZM108.99 212.181C109.032 212.069 109.073 211.956 109.116 211.843L105.365 210.454C105.321 210.57 105.279 210.685 105.238 210.797L108.99 212.181ZM103.282 217.957C105.085 217.88 106.372 217.074 107.278 215.836C108.051 214.778 108.549 213.38 108.991 212.181L105.238 210.797C104.728 212.18 104.419 212.968 104.049 213.475C103.81 213.802 103.614 213.939 103.112 213.96L103.282 217.957ZM101.659 212.563C101.624 213.569 101.372 214.955 101.245 215.525L105.15 216.392C105.296 215.734 105.609 214.07 105.657 212.701L101.659 212.563ZM106.905 194.587C105.671 195.671 104.826 197.38 104.218 199.023C103.585 200.734 103.1 202.683 102.733 204.526C102 208.201 101.689 211.703 101.659 212.563L105.657 212.701C105.678 212.078 105.961 208.792 106.656 205.308C107.002 203.572 107.438 201.849 107.97 200.411C108.527 198.906 109.091 197.991 109.546 197.591L106.905 194.587ZM107.396 188.325C107.628 189.929 107.814 191.274 107.743 192.427C107.674 193.53 107.385 194.165 106.905 194.587L109.546 197.591C111.119 196.208 111.63 194.37 111.735 192.675C111.837 191.03 111.572 189.252 111.355 187.752L107.396 188.325ZM107.036 185.283C107.103 186.304 107.257 187.36 107.396 188.325L111.355 187.752C111.211 186.755 111.082 185.858 111.027 185.019L107.036 185.283ZM96.9816 141.456C96.5725 144.024 96.8196 147.444 97.3949 151.139C97.9777 154.881 98.9289 159.09 100.04 163.319C102.263 171.777 105.161 180.439 107.155 185.844L110.908 184.459C108.947 179.146 106.092 170.609 103.909 162.302C102.817 158.147 101.901 154.082 101.347 150.523C100.786 146.917 100.625 144.009 100.932 142.085L96.9816 141.456ZM92.0764 122.44C92.8288 126.233 93.6802 130.526 94.5378 134.209C94.9666 136.05 95.4028 137.764 95.8356 139.202C96.2554 140.598 96.7143 141.881 97.2217 142.766L100.692 140.776C100.429 140.318 100.077 139.416 99.666 138.05C99.2679 136.727 98.8534 135.104 98.4335 133.301C97.5938 129.696 96.7556 125.471 95.9999 121.662L92.0764 122.44ZM92.236 113.528C91.2389 113.906 90.484 113.363 90.265 113.164C90.0453 112.964 89.9496 112.774 89.9482 112.772C89.925 112.729 89.9554 112.779 90.0298 113.01C90.1665 113.435 90.3434 114.123 90.5573 115.061C90.9809 116.918 91.4978 119.523 92.0764 122.44L95.9999 121.662C95.426 118.768 94.8964 116.098 94.4572 114.172C94.2396 113.218 94.031 112.387 93.8378 111.786C93.7472 111.504 93.6266 111.165 93.4674 110.87C93.398 110.742 93.2381 110.461 92.9581 110.206C92.6788 109.952 91.8676 109.39 90.8183 109.788L92.236 113.528ZM92.4441 138.811C92.5571 131.883 92.6664 125.183 92.8277 120.183C92.9084 117.679 93.0014 115.632 93.1118 114.207C93.1676 113.486 93.2244 112.973 93.2775 112.655C93.3057 112.486 93.3213 112.445 93.3106 112.477C93.3068 112.489 93.2714 112.6 93.1838 112.746C93.1308 112.834 92.8555 113.294 92.236 113.528L90.8183 109.788C90.1584 110.038 89.8438 110.538 89.7522 110.691C89.6259 110.901 89.5527 111.101 89.5119 111.225C89.4271 111.482 89.3719 111.758 89.3321 111.996C89.2493 112.492 89.182 113.146 89.1238 113.898C89.006 115.417 88.9109 117.539 88.8297 120.054C88.6672 125.093 88.5574 131.83 88.4447 138.746L92.4441 138.811ZM92.0423 158.619C92.2163 152.79 92.332 145.691 92.4441 138.811L88.4447 138.746C88.3324 145.634 88.2171 152.704 88.0441 158.5L92.0423 158.619ZM94.4973 174.969C93.7862 173.106 93.1248 171.366 92.6569 168.939C92.1875 166.504 91.9022 163.311 92.0423 158.619L88.0441 158.5C87.8976 163.406 88.1911 166.904 88.7292 169.696C89.2687 172.495 90.0434 174.517 90.7603 176.395L94.4973 174.969ZM97.1475 188.005C96.96 181.443 95.7129 178.154 94.4973 174.969L90.7603 176.395C91.8967 179.372 92.9796 182.187 93.1491 188.119L97.1475 188.005ZM96.0658 232.68C96.8052 217.094 97.5379 201.671 97.1475 188.005L93.1491 188.119C93.5344 201.603 92.8115 216.864 92.0703 232.49L96.0658 232.68ZM95.478 245.516C95.6597 241.241 95.8631 236.953 96.0658 232.68L92.0703 232.49C91.8676 236.762 91.6638 241.059 91.4816 245.346L95.478 245.516ZM94.8762 270.229C94.8699 267.781 94.8503 260.287 95.478 245.516L91.4816 245.346C90.851 260.187 90.8698 267.742 90.8762 270.239L94.8762 270.229ZM94.8771 270.733C94.8771 270.595 94.8767 270.426 94.8762 270.229L90.8762 270.239C90.8767 270.438 90.8771 270.601 90.8771 270.733H94.8771ZM94.8278 321.319C100.495 296.28 97.1949 277.392 94.7753 270.103L90.979 271.363C93.167 277.955 96.4344 296.101 90.9265 320.436L94.8278 321.319ZM90.1706 347.079C90.0513 346.045 90.1296 344.367 90.3973 342.193C90.6597 340.063 91.0852 337.597 91.5904 335.058C92.6005 329.98 93.9106 324.703 94.8072 321.402L90.9471 320.353C90.0322 323.722 88.6992 329.091 87.6673 334.277C87.1515 336.87 86.7062 339.44 86.4273 341.704C86.1536 343.927 86.0199 346.003 86.197 347.538L90.1706 347.079ZM94.8494 376.866C93.5273 369.016 90.7559 352.152 90.1706 347.079L86.197 347.538C86.7973 352.741 89.5921 369.735 90.9049 377.53L94.8494 376.866ZM84.8325 392.534C87.8468 392.373 90.2327 391.66 92.0406 390.459C93.8748 389.241 94.9885 387.603 95.563 385.839C96.672 382.436 95.7486 378.7 94.7003 376.376L91.054 378.02C91.8995 379.895 92.4335 382.533 91.7598 384.6C91.443 385.573 90.8554 386.445 89.8278 387.127C88.7739 387.827 87.1374 388.405 84.6185 388.54L84.8325 392.534ZM71.4311 376.679C70.4861 380.197 70.3612 383.115 70.9557 385.502C71.5619 387.936 72.8897 389.7 74.5977 390.88C77.8782 393.145 82.2656 393.077 85.1236 392.497L84.3274 388.577C81.9157 389.067 78.8431 388.95 76.8704 387.588C75.9517 386.954 75.2045 386.01 74.8371 384.535C74.4579 383.012 74.4606 380.819 75.2941 377.717L71.4311 376.679ZM74.862 344.748C76.4942 352.675 75.8564 360.207 71.4311 376.679L75.2941 377.717C79.7616 361.088 80.6059 352.811 78.7798 343.941L74.862 344.748ZM73.4584 338.566C74.0736 341.2 74.5635 343.298 74.862 344.748L78.7798 343.941C78.468 342.427 77.963 340.266 77.3535 337.656L73.4584 338.566ZM65.1871 285.06C65.1871 303.2 70.6138 326.388 73.4584 338.566L77.3535 337.656C74.4825 325.365 69.1871 302.651 69.1871 285.06H65.1871ZM65.4744 277.856C65.3281 279.501 65.1871 281.105 65.1871 285.06H69.1871C69.1871 281.245 69.3208 279.761 69.4586 278.21L65.4744 277.856ZM65.7767 269.753C65.7767 274.478 65.622 276.195 65.4744 277.856L69.4586 278.21C69.6157 276.443 69.7767 274.608 69.7767 269.753H65.7767ZM60.0097 202.26C60.0309 202.475 61.4745 217.086 62.9127 232.794C64.3573 248.573 65.7767 265.259 65.7767 269.753H69.7767C69.7767 265.024 68.3291 248.081 66.896 232.429C65.4565 216.707 64.0118 202.084 63.9903 201.867L60.0097 202.26ZM60.0097 201.867C59.9885 202.081 58.5438 216.703 57.1042 232.426C55.6711 248.079 54.2232 265.023 54.2232 269.753H58.2232C58.2232 265.259 59.6428 248.571 61.0875 232.791C62.5258 217.082 63.9694 202.471 63.9903 202.26L60.0097 201.867ZM54.2232 269.753C54.2232 274.608 54.3843 276.443 54.5413 278.21L58.5256 277.856C58.378 276.195 58.2232 274.478 58.2232 269.753H54.2232ZM54.5413 278.21C54.6792 279.761 54.8128 281.245 54.8128 285.06H58.8128C58.8128 281.105 58.6719 279.501 58.5256 277.856L54.5413 278.21ZM54.8128 285.06C54.8128 302.651 49.5175 325.365 46.6464 337.656L50.5416 338.566C53.3862 326.388 58.8128 303.2 58.8128 285.06H54.8128ZM46.6464 337.656C46.0369 340.266 45.532 342.427 45.2202 343.941L49.138 344.748C49.4365 343.298 49.9264 341.2 50.5416 338.566L46.6464 337.656ZM45.2202 343.941C43.3941 352.811 44.2384 361.088 48.7058 377.717L52.5689 376.679C48.1436 360.207 47.5058 352.675 49.138 344.748L45.2202 343.941ZM48.7058 377.717C49.5393 380.819 49.5421 383.012 49.1629 384.535C48.7955 386.01 48.0483 386.954 47.1296 387.588C45.1569 388.95 42.0843 389.067 39.6726 388.577L38.8763 392.497C41.7344 393.077 46.1218 393.145 49.4023 390.88C51.1102 389.7 52.438 387.936 53.0443 385.502C53.6388 383.115 53.5139 380.197 52.5689 376.679L48.7058 377.717ZM39.3815 388.54C36.8625 388.405 35.2261 387.827 34.1722 387.127C33.1446 386.445 32.5569 385.573 32.2402 384.6C31.5665 382.533 32.1005 379.895 32.946 378.02L29.2997 376.376C28.2514 378.7 27.328 382.436 28.4369 385.839C29.0115 387.603 30.1252 389.241 31.9594 390.459C33.7673 391.66 36.1532 392.373 39.1675 392.534L39.3815 388.54ZM33.0951 377.53C34.4079 369.735 37.2026 352.741 37.803 347.538L33.8294 347.079C33.244 352.152 30.4726 369.016 29.1506 376.866L33.0951 377.53ZM37.803 347.538C37.9801 346.003 37.8464 343.927 37.5727 341.704C37.2938 339.44 36.8485 336.87 36.3327 334.277C35.3008 329.091 33.9678 323.722 33.0529 320.353L29.1928 321.402C30.0893 324.703 31.3994 329.98 32.4096 335.058C32.9148 337.597 33.3402 340.063 33.6027 342.193C33.8704 344.367 33.9487 346.045 33.8294 347.079L37.803 347.538ZM33.0735 320.436C27.5656 296.101 30.833 277.955 33.021 271.363L29.2247 270.103C26.8051 277.392 23.5048 296.28 29.1722 321.319L33.0735 320.436ZM33.1228 270.733C33.1228 270.601 33.1232 270.438 33.1238 270.239L29.1238 270.229C29.1233 270.426 29.1228 270.595 29.1228 270.733H33.1228ZM33.1238 270.239C33.1301 267.742 33.149 260.187 32.5184 245.346L28.522 245.516C29.1496 260.287 29.13 267.781 29.1238 270.229L33.1238 270.239ZM32.5184 245.346C32.3362 241.059 32.1323 236.762 31.9297 232.49L27.9342 232.68C28.1369 236.953 28.3403 241.241 28.522 245.516L32.5184 245.346ZM31.9297 232.49C31.1884 216.865 30.4656 201.603 30.8508 188.119L26.8525 188.005C26.462 201.671 27.1948 217.094 27.9342 232.68L31.9297 232.49ZM30.8508 188.119C31.0203 182.188 32.1033 179.372 33.2397 176.395L29.5027 174.969C28.2871 178.154 27.04 181.443 26.8525 188.005L30.8508 188.119ZM33.2397 176.395C33.9566 174.517 34.7313 172.495 35.2708 169.696C35.8089 166.904 36.1024 163.407 35.9559 158.5L31.9577 158.619C32.0978 163.311 31.8124 166.504 31.3431 168.939C30.8752 171.366 30.2138 173.106 29.5027 174.969L33.2397 176.395ZM35.9559 158.5C35.7829 152.704 35.6676 145.634 35.5553 138.746L31.5558 138.811C31.668 145.691 31.7837 152.79 31.9577 158.619L35.9559 158.5ZM35.5553 138.746C35.4425 131.83 35.3328 125.093 35.1702 120.054C35.0891 117.539 34.994 115.417 34.8762 113.898C34.818 113.146 34.7506 112.492 34.6678 111.996C34.6281 111.758 34.5729 111.482 34.4881 111.225C34.4473 111.101 34.3741 110.901 34.2478 110.691C34.1562 110.538 33.8415 110.038 33.1817 109.788L31.764 113.528C31.1444 113.294 30.8692 112.834 30.8162 112.746C30.7286 112.6 30.6932 112.489 30.6894 112.477C30.6786 112.445 30.6943 112.486 30.7225 112.655C30.7756 112.973 30.8323 113.486 30.8882 114.207C30.9986 115.632 31.0915 117.679 31.1723 120.183C31.3336 125.183 31.4429 131.883 31.5558 138.811L35.5553 138.746ZM33.1817 109.788C32.1323 109.39 31.3211 109.952 31.0419 110.206C30.7619 110.461 30.602 110.742 30.5326 110.87C30.3734 111.165 30.2527 111.504 30.1622 111.786C29.9689 112.387 29.7603 113.218 29.5428 114.172C29.1036 116.098 28.574 118.769 28 121.662L31.9236 122.44C32.5022 119.523 33.0191 116.918 33.4427 115.061C33.6566 114.123 33.8335 113.435 33.9702 113.01C34.0446 112.779 34.075 112.729 34.0518 112.772C34.0504 112.774 33.9547 112.964 33.7349 113.164C33.516 113.363 32.7611 113.906 31.764 113.528L33.1817 109.788ZM28 121.662C27.2444 125.471 26.4062 129.696 25.5664 133.302C25.1465 135.104 24.7321 136.727 24.334 138.05C23.9229 139.416 23.5706 140.319 23.3083 140.776L26.7783 142.766C27.2857 141.881 27.7446 140.598 28.1643 139.203C28.5971 137.764 29.0334 136.05 29.4622 134.209C30.3198 130.526 31.1712 126.233 31.9236 122.44L28 121.662ZM23.0682 142.085C23.3746 144.009 23.2143 146.917 22.6527 150.523C22.0985 154.082 21.1831 158.147 20.0912 162.302C17.9078 170.609 15.0526 179.146 13.0924 184.459L16.8452 185.844C18.8393 180.439 21.7368 171.777 23.9598 163.319C25.0711 159.09 26.0222 154.882 26.605 151.139C27.1803 147.445 27.4274 144.024 27.0184 141.456L23.0682 142.085ZM12.9732 185.02C12.9178 185.858 12.7891 186.755 12.6449 187.752L16.6038 188.325C16.7432 187.36 16.897 186.304 16.9644 185.283L12.9732 185.02ZM12.6449 187.752C12.4282 189.252 12.1628 191.03 12.2651 192.675C12.3705 194.37 12.8805 196.208 14.4544 197.591L17.0949 194.587C16.6155 194.165 16.3259 193.53 16.2574 192.427C16.1857 191.274 16.3718 189.929 16.6038 188.325L12.6449 187.752ZM14.4544 197.591C14.909 197.991 15.4733 198.906 16.0303 200.412C16.5622 201.849 16.9984 203.572 17.3444 205.308C18.0386 208.792 18.3219 212.078 18.3434 212.701L22.341 212.563C22.3113 211.703 21.9996 208.201 21.2672 204.526C20.8999 202.683 20.4149 200.734 19.7817 199.023C19.1736 197.38 18.3291 195.671 17.0949 194.587L14.4544 197.591ZM18.3434 212.701C18.3906 214.07 18.7041 215.735 18.8504 216.393L22.7551 215.525C22.6284 214.955 22.3757 213.569 22.341 212.563L18.3434 212.701ZM20.8878 213.961C20.3855 213.939 20.1904 213.802 19.9513 213.475C19.5807 212.968 19.2724 212.18 18.7624 210.798L15.0095 212.181C15.4513 213.38 15.9489 214.778 16.7225 215.836C17.6276 217.074 18.915 217.88 20.7177 217.957L20.8878 213.961ZM18.7624 210.798C18.7211 210.685 18.6787 210.57 18.6354 210.454L14.8844 211.843C14.9265 211.957 14.968 212.069 15.0095 212.181L18.7624 210.798ZM18.6354 210.454C17.7749 208.13 16.5036 205.548 15.971 204.536L12.4313 206.399C12.9222 207.332 14.1073 209.745 14.8844 211.843L18.6354 210.454ZM13.6133 203.556C12.5936 203.87 12.1531 204.703 11.9816 205.183C11.8044 205.679 11.7581 206.197 11.7484 206.607C11.7285 207.452 11.858 208.442 12.0233 209.347C12.3491 211.129 12.9243 213.145 13.3121 213.984L16.9427 212.305C16.7625 211.915 16.2605 210.282 15.9581 208.627C15.8093 207.813 15.737 207.138 15.7473 206.701C15.7528 206.47 15.7796 206.441 15.7485 206.528C15.7231 206.6 15.5017 207.16 14.7891 207.379L13.6133 203.556ZM13.3121 213.984C13.8109 215.062 16.4342 219.743 17.6288 221.856L21.1109 219.887C19.8558 217.667 17.3527 213.191 16.9427 212.305L13.3121 213.984ZM17.8513 219.57C17.9522 219.452 17.9159 219.614 17.2991 219.601C16.7573 219.589 16.1648 219.442 15.8206 219.315L14.4342 223.067C15.0947 223.311 16.1321 223.577 17.2148 223.6C18.2224 223.621 19.8049 223.437 20.8884 222.173L17.8513 219.57ZM13.353 222.113C14.0814 223.514 14.0145 224.048 14.0151 224.045C14.0219 224.007 14.0663 223.849 14.2336 223.684C14.3903 223.53 14.5964 223.429 14.8233 223.394L15.4315 227.347C16.629 227.163 17.6838 226.226 17.9504 224.761C18.1857 223.468 17.7834 221.963 16.9018 220.268L13.353 222.113ZM15.1274 225.37C16.8339 224.327 16.8339 224.327 16.8338 224.327C16.8337 224.327 16.8336 224.327 16.8335 224.327C16.8332 224.326 16.8327 224.326 16.8321 224.325C16.8309 224.323 16.829 224.319 16.8266 224.315C16.8217 224.307 16.8143 224.295 16.8046 224.28C16.7852 224.248 16.7564 224.201 16.7188 224.139C16.6435 224.016 16.5328 223.834 16.3914 223.603C16.1086 223.139 15.7031 222.474 15.2123 221.668C14.2305 220.055 12.9078 217.878 11.5434 215.62C8.78628 211.058 5.93778 206.293 5.30631 205.068L1.75083 206.901C2.46251 208.282 5.41342 213.21 8.11992 217.689C9.48732 219.952 10.8125 222.133 11.7956 223.748C12.2872 224.555 12.6934 225.222 12.9768 225.686C13.1185 225.918 13.2294 226.1 13.305 226.224C13.3428 226.286 13.3717 226.333 13.3912 226.365C13.401 226.381 13.4084 226.393 13.4133 226.401C13.4158 226.405 13.4177 226.408 13.419 226.41C13.4196 226.411 13.4201 226.412 13.4204 226.413C13.4205 226.413 13.4207 226.413 13.4207 226.413C13.4208 226.413 13.4209 226.413 15.1274 225.37ZM5.30631 205.068C4.8917 204.264 4.77968 203.013 4.86257 201.724C4.90135 201.122 4.97727 200.586 5.0436 200.201C5.07656 200.011 5.1066 199.86 5.12746 199.762C5.13787 199.712 5.14594 199.676 5.15088 199.654C5.15335 199.644 5.15503 199.637 5.15582 199.633C5.15622 199.631 5.15639 199.631 5.15633 199.631C5.1563 199.631 5.15621 199.632 5.15606 199.632C5.15598 199.632 5.15589 199.633 5.15579 199.633C5.15574 199.633 5.15565 199.634 5.15562 199.634C5.15552 199.634 5.15543 199.635 3.2122 199.162C1.26897 198.688 1.26886 198.689 1.26875 198.689C1.26871 198.69 1.2686 198.69 1.26851 198.69C1.26835 198.691 1.26816 198.692 1.26796 198.693C1.26757 198.694 1.26711 198.696 1.26659 198.698C1.26555 198.703 1.26427 198.708 1.26276 198.714C1.25975 198.727 1.25583 198.744 1.25111 198.765C1.24166 198.806 1.22899 198.863 1.21395 198.934C1.1839 199.076 1.14422 199.276 1.1019 199.521C1.01769 200.009 0.920854 200.69 0.870831 201.467C0.776129 202.939 0.822293 205.099 1.75083 206.901L5.30631 205.068ZM5.16308 199.602L6.55108 193.455L2.64932 192.574L1.26132 198.721L5.16308 199.602ZM6.6002 193.015V165.458H2.6002V193.015H6.6002ZM6.6002 165.458C6.6002 149.577 11.3599 139.352 13.4886 136.454L10.2646 134.086C7.54235 137.793 2.6002 148.89 2.6002 165.458H6.6002ZM13.8764 135.297C14.1235 116.766 15.1986 100.683 15.9941 93.3111L12.0172 92.8819C11.2052 100.406 10.1251 116.618 9.87677 135.243L13.8764 135.297ZM15.9882 92.8328C14.9047 84.6858 16.1769 80.6001 18.2416 78.182C20.4146 75.6369 23.7959 74.4606 28.3306 72.9599L27.0739 69.1624C22.8159 70.5716 18.2341 72.0306 15.1996 75.5846C12.0567 79.2655 10.877 84.7425 12.0231 93.3601L15.9882 92.8328ZM28.3306 72.9599C30.5132 72.2375 32.909 71.4464 35.3005 70.3695L33.6581 66.7222C31.4846 67.701 29.2824 68.4315 27.0739 69.1624L28.3306 72.9599ZM35.3005 70.3695C46.6795 65.2452 50.519 62.806 53.0138 59.9549L50.0035 57.3209C48.1635 59.4237 45.1263 61.5578 33.6581 66.7222L35.3005 70.3695ZM53.0138 59.9549C53.7873 59.0709 54.1903 57.837 54.4305 56.7914C54.6874 55.6734 54.8297 54.4319 54.9009 53.2737C54.9726 52.1083 54.9753 50.9746 54.9362 50.0524C54.9168 49.5919 54.8862 49.1679 54.8455 48.8087C54.8105 48.4988 54.753 48.0878 54.6362 47.7407L50.845 49.0162C50.8148 48.9264 50.8379 48.9671 50.8709 49.2583C50.8983 49.5002 50.9231 49.8268 50.9398 50.2216C50.9732 51.0099 50.9713 52.0052 50.9084 53.0283C50.8451 54.0586 50.7229 55.0652 50.5321 55.8958C50.3247 56.7987 50.0969 57.2141 50.0035 57.3209L53.0138 59.9549ZM54.6362 47.7407C54.4828 47.2847 54.2186 46.906 54.0329 46.6627C53.8239 46.3888 53.5782 46.114 53.3318 45.8548C52.8417 45.3391 52.2264 44.7588 51.6394 44.2044L48.8928 47.1124C49.505 47.6906 50.0325 48.1898 50.4327 48.6107C50.6314 48.8198 50.7677 48.9775 50.8531 49.0894C50.9617 49.2317 50.9041 49.1917 50.845 49.0162L54.6362 47.7407ZM51.6394 44.2044C50.6028 43.2253 49.6457 42.3152 49.0535 41.5683L45.9192 44.0534C46.7294 45.0752 47.9291 46.2022 48.8928 47.1124L51.6394 44.2044ZM49.0535 41.5683C47.8141 40.0051 46.6596 36.9574 46.154 33.671L42.2005 34.2792C42.759 37.909 44.0748 41.7272 45.9192 44.0534L49.0535 41.5683ZM46.154 33.671C46.0942 33.2825 46.0098 32.806 45.9175 32.2848L41.9787 32.9823C42.074 33.52 42.1492 33.9455 42.2005 34.2793L46.154 33.671ZM45.9175 32.2848C45.1239 27.8039 43.5023 18.4285 46.6342 10.28L42.9004 8.84491C39.3167 18.1693 41.2047 28.6114 41.9787 32.9823L45.9175 32.2848ZM46.6342 10.28C47.2435 8.69456 48.7148 7.30344 50.8432 6.22591C52.9493 5.15971 55.4827 4.51642 57.8029 4.30986L57.4482 0.325615C54.7086 0.569516 51.6674 1.32529 49.0365 2.65718C46.428 3.97774 44.0001 5.98374 42.9004 8.84491L46.6342 10.28ZM55.6258 2.35113L55.6261 2.36157L59.6251 2.2739L59.6249 2.26346L55.6258 2.35113Z" fill="#5F819E" mask="url(#path-9-outside-1_491_3020)"/>
</svg>
