<svg width="234" height="254" viewBox="0 0 234 254" fill="none" xmlns="http://www.w3.org/2000/svg">
<path d="M221.114 75.6162C222.885 74.3171 224.038 72.233 224.038 69.8513C224.038 65.8997 220.86 62.6924 216.943 62.6924C215.937 62.6924 214.985 62.909 214.126 63.2879C195 33.7459 163.05 13.3926 126.312 10.3342C126.098 5.11058 121.873 0.928955 116.642 0.928955C111.41 0.928955 107.172 5.11058 106.971 10.3342C70.233 13.4062 38.2835 33.7459 19.1433 63.2879C18.2849 62.909 17.3326 62.6924 16.3266 62.6924C12.4101 62.6924 9.23123 65.8997 9.23123 69.8513C9.23123 72.2195 10.3847 74.3171 12.1552 75.6162C4.52332 91.233 0.217773 108.785 0.217773 127.338C0.217773 146.46 4.80498 164.526 12.8795 180.495C10.7066 181.713 9.23123 184.027 9.23123 186.72C9.23123 190.672 12.4101 193.879 16.3266 193.879C17.6948 193.879 18.9556 193.473 20.0286 192.796C39.2627 221.608 70.8366 241.365 107.038 244.356C107.588 249.255 111.652 253.071 116.642 253.071C121.631 253.071 125.709 249.255 126.245 244.356C162.446 241.352 194.007 221.608 213.241 192.796C214.327 193.473 215.588 193.879 216.943 193.879C220.86 193.879 224.038 190.672 224.038 186.72C224.038 184.041 222.55 181.727 220.39 180.495C228.465 164.526 233.052 146.46 233.052 127.338C233.052 108.785 228.746 91.233 221.114 75.6162ZM210.143 71.7458L169.515 94.3591C168.697 93.6554 167.637 93.2088 166.484 93.2088C166.122 93.2088 165.759 93.2629 165.424 93.3441L122.57 18.4539C122.972 18.1426 123.348 17.8178 123.697 17.4524L210.196 67.8349C210.009 68.4845 209.874 69.1476 209.874 69.8648C209.861 70.5144 209.982 71.1369 210.143 71.7458ZM215.307 76.7935V179.778C215.186 179.805 215.065 179.859 214.944 179.886L169.904 101.166C170.695 100.313 171.178 99.1903 171.178 97.9452C171.178 97.7152 171.138 97.4851 171.111 97.2686L211.725 74.6554C212.678 75.6974 213.898 76.4552 215.307 76.7935ZM121.028 185.056C120.84 184.555 120.572 184.095 120.236 183.689L165.759 102.601C166.001 102.641 166.242 102.668 166.484 102.668C166.645 102.668 166.792 102.641 166.94 102.628L212.088 181.524C211.108 182.457 210.397 183.675 210.076 185.042H121.028V185.056ZM23.2074 185.056C22.8855 183.689 22.1746 182.471 21.1955 181.537L66.3432 102.641C66.4908 102.655 66.6518 102.682 66.7993 102.682C67.0541 102.682 67.2821 102.641 67.5236 102.614L113.047 183.702C112.712 184.108 112.443 184.555 112.256 185.069H23.2074V185.056ZM21.5577 74.6554L62.1853 97.2686C62.1584 97.4987 62.1182 97.7152 62.1182 97.9452C62.1182 99.1903 62.6145 100.327 63.3924 101.166L18.3386 179.886C18.2179 179.845 18.0971 179.805 17.9764 179.778V76.7935C19.3848 76.4552 20.6188 75.6974 21.5577 74.6554ZM116.642 20.5244C117.701 20.5244 118.694 20.3079 119.646 19.9966L162.674 95.1846C162.433 95.5229 162.245 95.8883 162.098 96.2807H71.1853C71.0378 95.8883 70.85 95.5229 70.6086 95.1846L113.637 19.9966C114.589 20.3214 115.582 20.5244 116.642 20.5244ZM117.366 182.051C117.124 182.011 116.883 181.984 116.642 181.984C116.387 181.984 116.159 182.024 115.917 182.051L70.3939 100.963C70.7293 100.557 70.9975 100.11 71.1853 99.5962H162.098C162.286 100.097 162.554 100.557 162.889 100.963L117.366 182.051ZM110.726 18.4539L67.8723 93.3441C67.5236 93.2629 67.1748 93.2088 66.8127 93.2088C65.6458 93.2088 64.5996 93.6554 63.7814 94.3591L23.1404 71.7458C23.3013 71.1369 23.422 70.5144 23.422 69.8513C23.422 69.1476 23.2879 68.4709 23.1001 67.8213L109.6 17.4389C109.948 17.8178 110.324 18.1426 110.726 18.4539ZM23.2074 188.385H112.256C112.725 189.657 113.731 190.672 114.992 191.145V233.638C112.108 234.139 109.694 235.912 108.272 238.361L23.0867 188.736C23.127 188.628 23.1806 188.506 23.2074 188.385ZM118.291 233.638V191.145C119.552 190.672 120.558 189.657 121.028 188.385H210.076C210.102 188.506 210.156 188.628 210.183 188.75L124.998 238.375C123.589 235.912 121.162 234.139 118.291 233.638ZM212.731 64.1404C212.409 64.384 212.101 64.6411 211.819 64.9389L125.521 14.6647C125.883 13.8257 126.111 12.919 126.232 11.9852C162.406 15.0301 193.859 35.0586 212.731 64.1404ZM107.051 11.9987C107.172 12.9325 107.4 13.8392 107.762 14.6782L21.4638 64.9524C21.1821 64.6547 20.8736 64.3976 20.5517 64.154C39.4236 35.0586 70.8768 15.0301 107.051 11.9987ZM1.88098 127.352C1.88098 109.096 6.10603 91.8284 13.5904 76.4552C13.9391 76.6041 14.3147 76.7124 14.6903 76.7935V179.778C14.5964 179.805 14.5159 179.832 14.422 179.859C6.42793 164.093 1.88098 146.244 1.88098 127.352ZM21.3431 191.781C21.3833 191.741 21.4235 191.673 21.4638 191.632L107.105 241.514C107.038 241.893 107.011 242.299 106.984 242.692C71.3463 239.674 40.2686 220.187 21.3431 191.781ZM126.299 242.692C126.272 242.299 126.245 241.893 126.178 241.514L211.819 191.632C211.86 191.687 211.9 191.741 211.94 191.781C193.014 220.187 161.937 239.674 126.299 242.692ZM218.593 179.778V76.7935C218.968 76.6988 219.344 76.6041 219.693 76.4552C227.177 91.8284 231.402 109.096 231.402 127.352C231.402 146.257 226.855 164.093 218.861 179.873C218.781 179.832 218.687 179.805 218.593 179.778Z" fill="#F0F3F7"/>
</svg>
