<svg width="122" height="116" viewBox="0 0 122 116" fill="none" xmlns="http://www.w3.org/2000/svg">
<g id="Group">
<g id="Group_2">
<path id="Vector" d="M101.42 42.3309C102.072 41.8518 102.498 41.0833 102.498 40.205C102.498 38.7478 101.326 37.5651 99.8813 37.5651C99.5103 37.5651 99.1591 37.6449 98.8426 37.7846C91.7893 26.8906 80.0074 19.385 66.4598 18.2572C66.3806 16.3309 64.8226 14.7888 62.8935 14.7888C60.9645 14.7888 59.4015 16.3309 59.3273 18.2572C45.7797 19.39 33.9978 26.8906 26.9395 37.7846C26.623 37.6449 26.2718 37.5651 25.9009 37.5651C24.4566 37.5651 23.2843 38.7478 23.2843 40.205C23.2843 41.0783 23.7097 41.8518 24.3626 42.3309C21.5482 48.0899 19.9604 54.5624 19.9604 61.4043C19.9604 68.4557 21.6521 75.1179 24.6297 81.0066C23.8284 81.4558 23.2843 82.3091 23.2843 83.3022C23.2843 84.7594 24.4566 85.9421 25.9009 85.9421C26.4054 85.9421 26.8703 85.7924 27.266 85.5429C34.3589 96.1675 46.0022 103.454 59.3521 104.556C59.5549 106.363 61.0535 107.77 62.8935 107.77C64.7335 107.77 66.2372 106.363 66.435 104.556C79.7848 103.449 91.4233 96.1675 98.5161 85.5429C98.9168 85.7924 99.3817 85.9421 99.8813 85.9421C101.326 85.9421 102.498 84.7594 102.498 83.3022C102.498 82.3141 101.949 81.4608 101.152 81.0066C104.13 75.1179 105.822 68.4557 105.822 61.4043C105.822 54.5624 104.234 48.0899 101.42 42.3309ZM97.3736 40.9037L82.3915 49.2426C82.0898 48.9831 81.699 48.8185 81.2736 48.8185C81.1401 48.8185 81.0066 48.8384 80.8829 48.8684L65.0798 21.2514C65.2281 21.1366 65.3666 21.0169 65.4952 20.8821L97.3933 39.4614C97.3241 39.701 97.2746 39.9455 97.2746 40.21C97.2697 40.4495 97.3142 40.6791 97.3736 40.9037ZM99.2779 42.7651V80.7421C99.2333 80.7521 99.1888 80.7721 99.1443 80.7821L82.5349 51.7528C82.8268 51.4384 83.0048 51.0242 83.0048 50.5651C83.0048 50.4803 82.99 50.3954 82.9801 50.3156L97.9572 41.9766C98.3084 42.3609 98.7585 42.6403 99.2779 42.7651ZM64.511 82.6884C64.4417 82.5038 64.3428 82.3341 64.2191 82.1844L81.0066 52.2818C81.0956 52.2968 81.1846 52.3068 81.2736 52.3068C81.333 52.3068 81.3874 52.2968 81.4418 52.2918L98.0908 81.3859C97.7297 81.7302 97.4675 82.1794 97.3488 82.6834H64.511V82.6884ZM28.4382 82.6884C28.3195 82.1844 28.0574 81.7352 27.6963 81.3909L44.3452 52.2968C44.3997 52.3018 44.459 52.3117 44.5134 52.3117C44.6074 52.3117 44.6915 52.2968 44.7805 52.2868L61.568 82.1894C61.4443 82.3391 61.3454 82.5038 61.2761 82.6934H28.4382V82.6884ZM27.8299 41.9766L42.8119 50.3156C42.802 50.4004 42.7872 50.4803 42.7872 50.5651C42.7872 51.0242 42.9702 51.4434 43.2571 51.7528L26.6428 80.7821C26.5983 80.7671 26.5537 80.7521 26.5092 80.7421V42.7651C27.0286 42.6403 27.4836 42.3609 27.8299 41.9766ZM62.8935 22.0149C63.2843 22.0149 63.6503 21.9351 64.0015 21.8203L79.8689 49.5471C79.7799 49.6718 79.7106 49.8066 79.6562 49.9513H46.1308C46.0764 49.8066 46.0072 49.6718 45.9182 49.5471L61.7856 21.8203C62.1368 21.9401 62.5028 22.0149 62.8935 22.0149ZM63.1606 81.5805C63.0716 81.5656 62.9826 81.5556 62.8935 81.5556C62.7996 81.5556 62.7155 81.5705 62.6264 81.5805L45.839 51.678C45.9627 51.5282 46.0616 51.3636 46.1308 51.1739H79.6562C79.7255 51.3586 79.8244 51.5282 79.9481 51.678L63.1606 81.5805ZM60.7123 21.2514L44.9091 48.8684C44.7805 48.8384 44.6519 48.8185 44.5184 48.8185C44.0881 48.8185 43.7023 48.9831 43.4005 49.2426L28.4135 40.9037C28.4729 40.6791 28.5174 40.4495 28.5174 40.205C28.5174 39.9455 28.4679 39.696 28.3987 39.4564L60.2968 20.8771C60.4254 21.0169 60.5639 21.1366 60.7123 21.2514ZM28.4382 83.916H61.2761C61.4492 84.3851 61.8202 84.7594 62.2852 84.9341V100.604C61.2217 100.789 60.3314 101.442 59.8071 102.346L28.3937 84.0458C28.4086 84.0059 28.4284 83.9609 28.4382 83.916ZM63.5019 100.604V84.9341C63.9669 84.7594 64.3378 84.3851 64.511 83.916H97.3488C97.3587 83.9609 97.3785 84.0059 97.3884 84.0508L65.975 102.351C65.4557 101.442 64.5604 100.789 63.5019 100.604ZM98.3282 38.099C98.2095 38.1889 98.0957 38.2837 97.9918 38.3935L66.1679 19.8541C66.3015 19.5447 66.3856 19.2103 66.4301 18.866C79.77 19.9888 91.3689 27.3746 98.3282 38.099ZM59.357 18.871C59.4015 19.2153 59.4856 19.5497 59.6191 19.8591L27.7952 38.3985C27.6914 38.2887 27.5776 38.1939 27.4589 38.104C34.4182 27.3746 46.0171 19.9888 59.357 18.871ZM20.5738 61.4093C20.5738 54.6772 22.1318 48.3094 24.8918 42.6403C25.0204 42.6952 25.1589 42.7351 25.2974 42.7651V80.7421C25.2628 80.7521 25.2331 80.7621 25.1985 80.7721C22.2505 74.9582 20.5738 68.3759 20.5738 61.4093ZM27.7507 85.1686C27.7656 85.1537 27.7804 85.1287 27.7952 85.1137L59.3768 103.508C59.3521 103.648 59.3422 103.798 59.3323 103.943C46.1902 102.83 34.7298 95.6435 27.7507 85.1686ZM66.4548 103.943C66.4449 103.798 66.435 103.648 66.4103 103.508L97.9918 85.1137C98.0067 85.1337 98.0215 85.1537 98.0363 85.1686C91.0573 95.6435 79.5969 102.83 66.4548 103.943ZM100.49 80.7421V42.7651C100.628 42.7301 100.767 42.6952 100.895 42.6403C103.655 48.3094 105.213 54.6772 105.213 61.4093C105.213 68.3809 103.537 74.9583 100.589 80.7771C100.559 80.7621 100.524 80.7521 100.49 80.7421Z" fill="#194B6C"/>
<path id="Vector_2" d="M118.321 41.1283C116.778 36.582 114.631 32.2503 112.044 28.2081C109.472 24.1609 106.395 20.438 102.948 17.1144C96.0826 10.4322 87.6097 5.44182 78.484 2.61225C69.3286 -0.132477 59.5499 -0.756278 50.157 0.940463C45.4631 1.77885 40.8532 3.13624 36.4808 5.05256C32.1083 6.96389 27.9684 9.41419 24.1598 12.2937C16.5723 18.0975 10.3153 25.648 6.1358 34.2465C4.03861 38.5382 2.46572 43.0845 1.4468 47.7456C0.413043 52.4016 -0.0667407 57.1725 0.00745241 61.9283C0.225086 52.4316 2.45088 42.9697 6.83816 34.6058C11.1067 26.192 17.3736 18.861 24.8968 13.2967C28.6757 10.537 32.7563 8.20651 37.0298 6.34508C41.3132 4.49364 45.8192 3.19114 50.4044 2.39766C59.5845 0.79075 69.1208 1.44948 78.0141 4.16926C86.9123 6.88405 95.1972 11.6948 101.934 18.1873C108.73 24.625 113.909 32.7294 117.148 41.5475C120.349 50.3855 121.486 59.997 120.413 69.389C119.414 78.7909 116.135 87.9334 111.045 95.933C116.446 88.128 119.923 78.9656 121.199 69.4838C122.451 59.997 121.447 50.2058 118.321 41.1283Z" fill="#194B6C"/>
<path id="Vector_3" d="M16.9633 89.3907C13.9065 84.2805 11.6906 78.6613 10.4986 72.8175C8.02053 61.1599 9.56375 48.639 14.9304 37.9595C20.1684 27.2001 29.2002 18.422 40.0027 13.1621C34.4531 15.4827 29.3288 18.8412 24.8376 22.9184C20.3514 27.0155 16.6715 31.986 13.8224 37.3856C10.9536 42.7852 9.10376 48.7388 8.31731 54.8221C8.14914 56.3492 7.91667 57.8662 7.90677 59.4033L7.81279 61.7039C7.8029 62.4724 7.83753 63.2409 7.84742 64.0045C7.95624 67.0736 8.31236 70.1327 8.92075 73.1469C10.1969 79.1603 12.5265 84.9293 15.7119 90.1592C18.922 95.3692 22.9927 100.05 27.7609 103.848C32.5092 107.666 37.9253 110.605 43.6431 112.581C49.3758 114.517 55.4299 115.411 61.4297 115.266C49.4252 114.947 37.6582 110.555 28.5424 102.875C24.0116 99.0272 20.0299 94.5059 16.9633 89.3907Z" fill="#194B6C"/>
</g>
</g>
</svg>
