<svg width="144" height="58" viewBox="0 0 144 58" fill="none" xmlns="http://www.w3.org/2000/svg">
<path d="M91.8511 21.2974C92.1766 21.0563 92.3886 20.6697 92.3886 20.2278C92.3886 19.4946 91.8043 18.8996 91.0844 18.8996C90.8995 18.8996 90.7244 18.9398 90.5666 19.0101C87.0509 13.529 81.1782 9.75285 74.4253 9.18542C74.3858 8.21626 73.6092 7.44043 72.6477 7.44043C71.6862 7.44043 70.9071 8.21626 70.8701 9.18542C64.1172 9.75536 58.2445 13.529 54.7263 19.0101C54.5685 18.9398 54.3935 18.8996 54.2086 18.8996C53.4887 18.8996 52.9043 19.4946 52.9043 20.2278C52.9043 20.6672 53.1164 21.0563 53.4418 21.2974C52.039 24.1948 51.2476 27.4513 51.2476 30.8935C51.2476 34.4412 52.0907 37.7931 53.5749 40.7558C53.1755 40.9818 52.9043 41.4111 52.9043 41.9108C52.9043 42.6439 53.4887 43.239 54.2086 43.239C54.46 43.239 54.6918 43.1637 54.889 43.0381C58.4245 48.3836 64.2282 52.0493 70.8824 52.6042C70.9835 53.5131 71.7305 54.2211 72.6477 54.2211C73.5648 54.2211 74.3143 53.5131 74.413 52.6042C81.0672 52.0468 86.8684 48.3836 90.4039 43.0381C90.6036 43.1637 90.8354 43.239 91.0844 43.239C91.8043 43.239 92.3886 42.6439 92.3886 41.9108C92.3886 41.4137 92.1149 40.9843 91.718 40.7558C93.2022 37.7931 94.0454 34.4412 94.0454 30.8935C94.0454 27.4513 93.254 24.1948 91.8511 21.2974ZM89.8344 20.5793L82.3665 24.7748C82.2161 24.6442 82.0213 24.5614 81.8093 24.5614C81.7428 24.5614 81.6762 24.5714 81.6146 24.5865L73.7374 10.6919C73.8114 10.6341 73.8804 10.5739 73.9445 10.5061L89.8442 19.8537C89.8097 19.9742 89.7851 20.0972 89.7851 20.2303C89.7826 20.3508 89.8048 20.4663 89.8344 20.5793ZM90.7836 21.5158V40.6228C90.7614 40.6278 90.7392 40.6378 90.717 40.6428L82.438 26.0377C82.5835 25.8795 82.6722 25.6711 82.6722 25.4401C82.6722 25.3975 82.6648 25.3548 82.6599 25.3146L90.1253 21.1191C90.3003 21.3124 90.5247 21.453 90.7836 21.5158ZM73.4539 41.602C73.4194 41.5091 73.3701 41.4237 73.3084 41.3484L81.6762 26.3038C81.7206 26.3114 81.7649 26.3164 81.8093 26.3164C81.8389 26.3164 81.866 26.3114 81.8931 26.3089L90.1919 40.9467C90.0119 41.1199 89.8812 41.3459 89.822 41.5995H73.4539V41.602ZM55.4733 41.602C55.4142 41.3484 55.2835 41.1224 55.1035 40.9492L63.4022 26.3114C63.4294 26.3139 63.459 26.3189 63.4861 26.3189C63.5329 26.3189 63.5748 26.3114 63.6192 26.3064L71.987 41.3509C71.9253 41.4262 71.876 41.5091 71.8415 41.6045H55.4733V41.602ZM55.1701 21.1191L62.638 25.3146C62.633 25.3573 62.6256 25.3975 62.6256 25.4401C62.6256 25.6711 62.7168 25.882 62.8598 26.0377L54.5784 40.6428C54.5562 40.6353 54.534 40.6278 54.5118 40.6228V21.5158C54.7707 21.453 54.9975 21.3124 55.1701 21.1191ZM72.6477 11.076C72.8425 11.076 73.0249 11.0359 73.2 10.9781L81.1091 24.9279C81.0648 24.9907 81.0302 25.0585 81.0031 25.1313H64.2923C64.2652 25.0585 64.2306 24.9907 64.1863 24.9279L72.0954 10.9781C72.2705 11.0384 72.4529 11.076 72.6477 11.076ZM72.7808 41.0446C72.7365 41.037 72.6921 41.032 72.6477 41.032C72.6008 41.032 72.5589 41.0396 72.5146 41.0446L64.1468 26C64.2084 25.9247 64.2578 25.8419 64.2923 25.7465H81.0031C81.0376 25.8394 81.0869 25.9247 81.1486 26L72.7808 41.0446ZM71.5604 10.6919L63.6833 24.5865C63.6192 24.5714 63.5551 24.5614 63.4885 24.5614C63.274 24.5614 63.0817 24.6442 62.9313 24.7748L55.461 20.5793C55.4906 20.4663 55.5128 20.3508 55.5128 20.2278C55.5128 20.0972 55.4881 19.9717 55.4536 19.8512L71.3533 10.5036C71.4174 10.5739 71.4865 10.6341 71.5604 10.6919ZM55.4733 42.2196H71.8415C71.9278 42.4556 72.1127 42.6439 72.3444 42.7318V50.6156C71.8144 50.7085 71.3706 51.0374 71.1093 51.4919L55.4512 42.2849C55.4586 42.2648 55.4684 42.2422 55.4733 42.2196ZM72.9509 50.6156V42.7318C73.1827 42.6439 73.3676 42.4556 73.4539 42.2196H89.822C89.827 42.2422 89.8368 42.2648 89.8418 42.2874L74.1837 51.4944C73.9248 51.0374 73.4786 50.7085 72.9509 50.6156ZM90.3102 19.1682C90.251 19.2134 90.1943 19.2611 90.1426 19.3164L74.2798 9.98886C74.3464 9.83319 74.3883 9.66497 74.4105 9.49173C81.0598 10.0567 86.8413 13.7726 90.3102 19.1682ZM70.8849 9.49424C70.9071 9.66748 70.949 9.8357 71.0156 9.99137L55.1528 19.3189C55.1011 19.2636 55.0444 19.2159 54.9852 19.1707C58.4541 13.7726 64.2356 10.0567 70.8849 9.49424ZM51.5533 30.896C51.5533 27.509 52.3299 24.3053 53.7056 21.453C53.7697 21.4807 53.8388 21.5007 53.9078 21.5158V40.6228C53.8905 40.6278 53.8757 40.6328 53.8585 40.6378C52.3891 37.7128 51.5533 34.4011 51.5533 30.896ZM55.1306 42.8498C55.138 42.8423 55.1454 42.8297 55.1528 42.8222L70.8948 52.0769C70.8824 52.1472 70.8775 52.2225 70.8726 52.2953C64.3219 51.7354 58.6094 48.1199 55.1306 42.8498ZM74.4228 52.2953C74.4179 52.2225 74.413 52.1472 74.4006 52.0769L90.1426 42.8222C90.15 42.8322 90.1573 42.8423 90.1647 42.8498C86.686 48.1199 80.9735 51.7354 74.4228 52.2953ZM91.3876 40.6228V21.5158C91.4566 21.4982 91.5257 21.4807 91.5898 21.453C92.9655 24.3053 93.7421 27.509 93.7421 30.896C93.7421 34.4036 92.9063 37.7128 91.4369 40.6403C91.4221 40.6328 91.4049 40.6278 91.3876 40.6228Z" fill="#CAE0D6"/>
<path d="M100.276 20.6924C99.5065 18.4051 98.4365 16.2257 97.147 14.192C95.865 12.1558 94.3315 10.2827 92.6131 8.61057C89.191 5.24865 84.9677 2.73788 80.4189 1.31427C75.8554 -0.0666515 70.9812 -0.380498 66.2993 0.473164C63.9596 0.894973 61.6618 1.5779 59.4823 2.54204C57.3029 3.50366 55.2393 4.73645 53.3409 6.18517C49.5589 9.10519 46.4401 12.904 44.3568 17.23C43.3114 19.3893 42.5274 21.6766 42.0195 24.0217C41.5042 26.3642 41.2651 28.7645 41.3021 31.1573C41.4105 26.3793 42.52 21.6189 44.7068 17.4108C46.8345 13.1777 49.9583 9.48934 53.7082 6.68983C55.5918 5.30137 57.6258 4.12885 59.756 3.19233C61.8911 2.26083 64.1371 1.60552 66.4226 1.20631C70.9984 0.397841 75.7518 0.729262 80.1847 2.09763C84.6201 3.46349 88.7497 5.88387 92.1077 9.15038C95.4952 12.3893 98.0765 16.4668 99.6914 20.9033C101.287 25.3499 101.854 30.1856 101.319 34.9109C100.821 39.6412 99.186 44.2409 96.649 48.2657C99.3413 44.3388 101.075 39.7291 101.711 34.9586C102.334 30.1856 101.834 25.2595 100.276 20.6924Z" fill="#CAE0D6"/>
<path d="M49.7539 44.9741C48.2302 42.403 47.1257 39.5759 46.5315 36.6358C45.2963 30.7707 46.0655 24.4711 48.7406 19.0981C51.3515 13.6849 55.8534 9.26842 61.2379 6.62207C58.4717 7.78958 55.9175 9.47933 53.6789 11.5306C51.4427 13.592 49.6084 16.0927 48.1883 18.8093C46.7583 21.526 45.8363 24.5213 45.4442 27.582C45.3604 28.3503 45.2445 29.1135 45.2396 29.8869L45.1928 31.0443C45.1878 31.431 45.2051 31.8176 45.21 32.2018C45.2643 33.7459 45.4418 35.285 45.745 36.8015C46.3811 39.827 47.5423 42.7295 49.1301 45.3607C50.7302 47.982 52.7592 50.3371 55.1359 52.2478C57.5028 54.1685 60.2025 55.6474 63.0525 56.6416C65.91 57.6158 68.9277 58.0652 71.9183 57.9924C65.9346 57.8317 60.0693 55.6223 55.5255 51.7582C53.2671 49.8224 51.2824 47.5476 49.7539 44.9741Z" fill="#CAE0D6"/>
<path d="M7.72515 27.9789C8.89377 28.4861 9.77148 29.159 10.3632 30.0001C10.9549 30.8387 11.2507 31.8329 11.2507 32.9803C11.2507 34.66 10.7256 36.0134 9.67779 37.0403C8.62751 38.0672 7.23946 38.5794 5.50871 38.5794C4.096 38.5794 2.91259 38.2128 1.95599 37.4746C1.12513 36.8344 0.528492 35.9581 0.16607 34.8484C0.0723832 34.5621 0.198121 34.2483 0.46439 34.1152L1.32976 33.6809C1.65027 33.5202 2.02995 33.6884 2.14583 34.0324C2.40717 34.8132 2.77699 35.4283 3.24789 35.8778C3.84699 36.4477 4.60142 36.7314 5.50871 36.7314C6.57871 36.7314 7.44409 36.4176 8.10483 35.7899C8.76557 35.1622 9.09594 34.3462 9.09594 33.3394C9.09594 32.5259 8.86419 31.8153 8.40315 31.2128C7.94211 30.6102 7.24685 30.1005 6.31491 29.6862L4.13545 28.7371C2.94217 28.23 2.05461 27.5772 1.47276 26.7787C0.890914 25.9803 0.597525 25.0237 0.597525 23.9114C0.597525 22.6134 1.07089 21.5413 2.01763 20.6926C2.96436 19.844 4.17243 19.4197 5.64184 19.4197C6.71925 19.4197 7.65119 19.6532 8.44013 20.1177C9.07129 20.4893 9.58903 21.004 9.9983 21.6568C10.1709 21.933 10.0871 22.3046 9.81339 22.4803L9.01458 23C8.74831 23.1733 8.39822 23.098 8.21824 22.8368C7.89773 22.3698 7.5501 22.0058 7.17289 21.7447C6.67487 21.4007 6.11028 21.2274 5.48405 21.2274C4.68278 21.2274 4.02944 21.476 3.51909 21.9756C3.00874 22.4753 2.7548 23.1105 2.7548 23.8838C2.7548 24.5316 2.94957 25.094 3.34157 25.5686C3.73358 26.0431 4.34255 26.4624 5.16601 26.829L7.72515 27.9789Z" fill="#1B4C6C"/>
<path d="M19.1079 37.5223V20.4591C19.1079 20.1277 19.3717 19.8616 19.6947 19.8616H27.9737C28.2991 19.8616 28.5605 20.1302 28.5605 20.4591V21.245C28.5605 21.5764 28.2967 21.8426 27.9737 21.8426H21.8273C21.5019 21.8426 21.2405 22.1112 21.2405 22.4401V26.4825C21.2405 26.8139 21.5043 27.08 21.8273 27.08H27.9761C28.3016 27.08 28.5629 27.3487 28.5629 27.6776V28.5011C28.5629 28.8326 28.2991 29.0987 27.9761 29.0987H21.8273C21.5019 29.0987 21.2405 29.3673 21.2405 29.6963V35.4961C21.2405 35.8276 21.5043 36.0937 21.8273 36.0937H27.9761C28.3016 36.0937 28.5629 36.3624 28.5629 36.6913V37.5148C28.5629 37.8462 28.2991 38.1124 27.9761 38.1124H19.6972C19.3717 38.1199 19.1079 37.8512 19.1079 37.5223Z" fill="#1B4C6C"/>
<path d="M37.1924 37.5223V20.6776C37.1924 20.1327 37.8507 19.8716 38.2131 20.2733L49.2879 32.5937C49.6503 32.9954 50.3086 32.7368 50.3086 32.1895V20.4591C50.3086 20.1277 50.5724 19.8616 50.8954 19.8616H51.7533C52.0788 19.8616 52.3401 20.1302 52.3401 20.4591V37.3039C52.3401 37.8487 51.6843 38.1098 51.3219 37.7106L40.2421 25.5208C39.8797 25.1216 39.2239 25.3828 39.2239 25.9276V37.5223C39.2239 37.8538 38.9601 38.1199 38.6371 38.1199H37.7792C37.4562 38.1199 37.1924 37.8512 37.1924 37.5223Z" fill="#1B4C6C"/>
<path d="M68.1705 27.9789C69.3391 28.4861 70.2168 29.159 70.8085 30.0001C71.4002 30.8387 71.6961 31.8329 71.6961 32.9803C71.6961 34.6601 71.1709 36.0134 70.1231 37.0403C69.0728 38.0672 67.6848 38.5794 65.954 38.5794C64.5413 38.5794 63.3579 38.2128 62.4013 37.4746C61.5704 36.8344 60.9738 35.9581 60.6114 34.8484C60.5177 34.5621 60.6434 34.2483 60.9097 34.1152L61.7751 33.6809C62.0956 33.5202 62.4753 33.6884 62.5911 34.0324C62.8525 34.8132 63.2223 35.4284 63.6932 35.8778C64.2923 36.4477 65.0467 36.7314 65.954 36.7314C67.024 36.7314 67.8894 36.4176 68.5501 35.7899C69.2109 35.1622 69.5413 34.3462 69.5413 33.3394C69.5413 32.5259 69.3095 31.8154 68.8485 31.2128C68.3874 30.6102 67.6922 30.1005 66.7602 29.6862L64.5808 28.7371C63.3875 28.23 62.4999 27.5772 61.9181 26.7787C61.3362 25.9803 61.0428 25.0237 61.0428 23.9114C61.0428 22.6134 61.5162 21.5413 62.4629 20.6926C63.4097 19.844 64.6177 19.4197 66.0872 19.4197C67.1646 19.4197 68.0965 19.6532 68.8854 20.1177C69.5166 20.4893 70.0343 21.004 70.4436 21.6568C70.6162 21.933 70.5324 22.3046 70.2587 22.4803L69.4599 23C69.1936 23.1733 68.8435 23.098 68.6636 22.8368C68.343 22.3698 67.9954 22.0058 67.6182 21.7447C67.1202 21.4007 66.5556 21.2274 65.9294 21.2274C65.1281 21.2274 64.4748 21.476 63.9644 21.9756C63.4541 22.4753 63.2001 23.1105 63.2001 23.8838C63.2001 24.5316 63.3949 25.094 63.7869 25.5686C64.1789 26.0431 64.7879 26.4624 65.6113 26.829L68.1705 27.9789Z" fill="#1B4C6C"/>
<path d="M79.5562 37.5223V20.4591C79.5562 20.1277 79.82 19.8616 80.1429 19.8616H88.4219C88.7474 19.8616 89.0087 20.1302 89.0087 20.4591V21.245C89.0087 21.5764 88.7449 21.8426 88.4219 21.8426H82.2731C81.9476 21.8426 81.6863 22.1112 81.6863 22.4401V26.4825C81.6863 26.8139 81.9501 27.08 82.2731 27.08H88.4219C88.7474 27.08 89.0087 27.3487 89.0087 27.6776V28.5011C89.0087 28.8326 88.7449 29.0987 88.4219 29.0987H82.2731C81.9476 29.0987 81.6863 29.3673 81.6863 29.6963V35.4961C81.6863 35.8276 81.9501 36.0937 82.2731 36.0937H88.4219C88.7474 36.0937 89.0087 36.3624 89.0087 36.6913V37.5148C89.0087 37.8462 88.7449 38.1124 88.4219 38.1124H80.1429C79.82 38.1199 79.5562 37.8512 79.5562 37.5223Z" fill="#1B4C6C"/>
<path d="M100.774 37.5223V22.5304C100.774 22.199 100.51 21.9329 100.187 21.9329H96.2919C95.9664 21.9329 95.7051 21.6642 95.7051 21.3353V20.4616C95.7051 20.1302 95.9689 19.864 96.2919 19.864H107.389C107.714 19.864 107.976 20.1327 107.976 20.4616V21.3353C107.976 21.6667 107.712 21.9329 107.389 21.9329H103.518C103.193 21.9329 102.931 22.2015 102.931 22.5304V37.5223C102.931 37.8537 102.668 38.1198 102.345 38.1198H101.363C101.038 38.1198 100.774 37.8512 100.774 37.5223Z" fill="#1B4C6C"/>
<path d="M119.753 20.3912L127.011 37.2812C127.181 37.6754 126.898 38.1198 126.474 38.1198H125.446C125.209 38.1198 124.997 37.9767 124.906 37.7557L122.881 32.8848C122.79 32.6639 122.576 32.5208 122.342 32.5208H116.111C115.875 32.5208 115.663 32.6639 115.571 32.8848L113.547 37.7557C113.456 37.9767 113.242 38.1198 113.007 38.1198H111.979C111.555 38.1198 111.272 37.6779 111.442 37.2812L118.678 20.3912C118.88 19.9142 119.546 19.9142 119.753 20.3912ZM118.673 25.2094L116.713 29.8267C116.545 30.2209 116.829 30.6628 117.253 30.6628H121.173C121.594 30.6628 121.88 30.2209 121.713 29.8267L119.753 25.2094C119.548 24.7273 118.878 24.7273 118.673 25.2094Z" fill="#1B4C6C"/>
<path d="M134.235 37.5223V20.4591C134.235 20.1277 134.499 19.8616 134.822 19.8616H135.778C136.104 19.8616 136.365 20.1302 136.365 20.4591V35.4509C136.365 35.7824 136.629 36.0485 136.952 36.0485H142.548C142.874 36.0485 143.135 36.3172 143.135 36.6461V37.5198C143.135 37.8512 142.871 38.1174 142.548 38.1174H134.819C134.499 38.1199 134.235 37.8512 134.235 37.5223Z" fill="#1B4C6C"/>
</svg>
